<svg id="Layer_1" data-name="Layer 1" xmlns="http://www.w3.org/2000/svg" viewBox="0 0 584 536.25"><defs><style>.cls-1{fill:#29292c;}.cls-2{fill:#fcd260;}.cls-3{fill:#d9dae2;}.cls-4{fill:#f49d3d;}.cls-5{fill:#fff;}.cls-6{fill:#325b96;}.cls-7{fill:#64a4ea;}.cls-8{fill:#8a8a95;}.cls-9{fill:#12629e;}.cls-10{fill:#d17428;}</style></defs><title>ORVZDS1</title><polygon class="cls-1" points="537.56 215.57 537.56 124.99 522.01 124.99 522.01 190.02 492.98 190.02 492.98 195.47 522.01 195.47 522.01 220.66 537.56 220.66 573.2 220.66 573.2 215.57 537.56 215.57"/><polygon class="cls-2" points="525.91 145.62 512.5 145.62 512.5 149.38 525.91 149.38 525.91 220.66 533.94 220.66 533.94 149.38 533.94 145.62 525.91 145.62"/><polygon class="cls-3" points="438.93 204.76 433.22 221.01 467.88 221.01 462.16 204.76 438.93 204.76"/><polygon class="cls-3" points="505.22 204.76 499.5 221.01 525.91 221.01 525.91 204.76 505.22 204.76"/><polygon class="cls-2" points="492.18 149.38 435.46 149.38 435.46 184.04 429.29 184.04 429.29 190.02 504.86 190.02 492.18 149.38"/><rect class="cls-4" x="522.02" y="195.47" width="3.9" height="6.08"/><polygon class="cls-4" points="471.29 221.01 496.1 221.01 498.95 212.89 468.43 212.89 471.29 221.01"/><polygon class="cls-4" points="429.29 221.01 429.81 221.01 432.67 212.89 429.29 212.89 429.29 221.01"/><polygon class="cls-4" points="436.65 201.55 464.44 201.55 467.04 208.95 500.34 208.95 502.94 201.55 522.01 201.55 522.01 195.47 506.55 195.47 504.86 190.02 429.29 190.02 429.29 202.62 429.29 208.95 434.05 208.95 436.65 201.55"/><polygon class="cls-2" points="429.29 208.95 429.29 212.89 432.67 212.89 434.05 208.95 429.29 208.95"/><polygon class="cls-2" points="467.04 208.95 468.43 212.89 498.95 212.89 500.34 208.95 467.04 208.95"/><polygon class="cls-1" points="436.65 201.55 429.81 221.01 433.22 221.01 438.93 204.76 462.16 204.76 467.88 221.01 468.95 221.01 471.29 221.01 464.44 201.55 436.65 201.55"/><polygon class="cls-1" points="505.22 204.76 525.91 204.76 525.91 201.55 502.94 201.55 496.1 221.01 499.5 221.01 505.22 204.76"/><path class="cls-1" d="M558.56,303.77a14.61,14.61,0,1,0,14.61,14.61A14.61,14.61,0,0,0,558.56,303.77Zm0,24.28a9.68,9.68,0,1,1,9.68-9.68A9.68,9.68,0,0,1,558.56,328Z" transform="translate(-108.49 -97.36)"/><circle class="cls-3" cx="450.07" cy="221.01" r="9.68"/><circle class="cls-5" cx="450.07" cy="221.01" r="3.93"/><path class="cls-1" d="M624.73,303.77a14.61,14.61,0,1,0,14.61,14.61A14.6,14.6,0,0,0,624.73,303.77Zm0,24.28a9.68,9.68,0,1,1,9.68-9.68A9.68,9.68,0,0,1,624.73,328Z" transform="translate(-108.49 -97.36)"/><circle class="cls-3" cx="516.23" cy="221.01" r="9.68"/><circle class="cls-5" cx="516.23" cy="221.01" r="3.93"/><rect class="cls-1" x="440.21" y="186" width="19.73" height="11.44"/><rect class="cls-6" x="442.22" y="172.4" width="7.85" height="9.31"/><rect class="cls-6" x="442.22" y="154.91" width="7.85" height="9.31"/><rect class="cls-7" x="442.22" y="164.23" width="7.85" height="8.17"/><polygon class="cls-6" points="489.28 163.28 473.29 179.28 473.29 181.71 474.64 181.71 490.12 166.24 489.28 163.28"/><polygon class="cls-6" points="492.11 173.35 483.74 181.71 494.45 181.71 492.11 173.35"/><polygon class="cls-6" points="473.29 173.97 488.13 159.14 486.94 154.91 481.09 154.91 473.29 162.72 473.29 173.97"/><polygon class="cls-6" points="470.61 154.91 468.2 154.91 454.82 168.29 454.82 172.08 470.61 156.3 470.61 154.91"/><polygon class="cls-6" points="470.61 165.4 454.82 181.18 454.82 181.71 465.55 181.71 470.61 176.65 470.61 165.4"/><polygon class="cls-6" points="454.82 154.91 454.82 162.99 462.9 154.91 454.82 154.91"/><polygon class="cls-7" points="462.9 154.91 454.82 162.99 454.82 168.29 468.2 154.91 462.9 154.91"/><polygon class="cls-7" points="473.29 162.72 481.09 154.91 473.29 154.91 473.29 162.72"/><polygon class="cls-7" points="470.61 156.3 454.82 172.08 454.82 181.18 470.61 165.4 470.61 156.3"/><polygon class="cls-7" points="488.13 159.14 473.29 173.97 473.29 179.28 489.28 163.28 488.13 159.14"/><polygon class="cls-7" points="470.61 176.65 465.55 181.71 470.61 181.71 470.61 176.65"/><polygon class="cls-7" points="490.12 166.24 474.64 181.71 483.74 181.71 492.11 173.35 490.12 166.24"/><polygon class="cls-6" points="282.38 59.49 295.5 59.29 323.7 111.45 294.29 111.45 282.38 59.49"/><path class="cls-6" d="M502,215c0,7.41-16.7,10.34-40.6,10.34H385.73c-26.88,0-50.59-5.58-62.14-11.46H501.85A4.53,4.53,0,0,1,502,215Z" transform="translate(-108.49 -97.36)"/><polygon class="cls-7" points="282.38 182.24 296 182.45 323.7 122.28 293.16 122.28 282.38 182.24"/><path class="cls-4" d="M316.24,207.61l.09.25C316.3,207.78,316.26,207.69,316.24,207.61Z" transform="translate(-108.49 -97.36)"/><path class="cls-6" d="M316.53,207a2.45,2.45,0,0,0,.1.65l-7.21-26.75h10.69l15.79,20.19C326.69,201.56,316.53,202.2,316.53,207Z" transform="translate(-108.49 -97.36)"/><path class="cls-6" d="M316.33,207.86c0,.1.09.2.13.3A1.7,1.7,0,0,1,316.33,207.86Z" transform="translate(-108.49 -97.36)"/><path class="cls-7" d="M342.38,198.79c3.54-.2,6.57-.25,8.4-.25h93.36c16.63,0,29.71,1.72,39.2,4.26l-21.29-.35a2.88,2.88,0,0,0,0,5.77h34.7c2.9,1.86,4.62,3.81,5.1,5.69H323.59c-3.82-1.94-6.29-3.92-7.13-5.74,0-.1-.1-.21-.13-.3l-.09-.25a3,3,0,0,1-.11-.76C316.12,201.27,331.58,199.38,342.38,198.79Z" transform="translate(-108.49 -97.36)"/><path class="cls-6" d="M459.17,205.33a2.88,2.88,0,0,1,2.88-2.88l21.29.35a48.72,48.72,0,0,1,13.4,5.42h-34.7A2.88,2.88,0,0,1,459.17,205.33Z" transform="translate(-108.49 -97.36)"/><polygon class="cls-6" points="201.59 128.88 213.37 129.06 230.62 110.25 207.75 110.25 201.59 128.88"/><rect class="cls-1" x="201.58" y="471.4" width="69.68" height="12.09"/><rect class="cls-2" x="201.58" y="483.49" width="69.68" height="21.25"/><rect class="cls-4" x="286.58" y="489.35" width="35.72" height="15.39"/><path class="cls-1" d="M486.29,602.1H355.87l-7.7-15.39H277.1l13.37,15.39,12.69,13.56h180A31.38,31.38,0,0,0,486.29,602.1Z" transform="translate(-108.49 -97.36)"/><path class="cls-4" d="M454.79,633.61a31.48,31.48,0,0,0,28.41-18h-180l16.81,18Z" transform="translate(-108.49 -97.36)"/><circle class="cls-1" cx="250.75" cy="491.62" r="3.6"/><circle class="cls-1" cx="261.8" cy="491.62" r="3.6"/><rect class="cls-2" x="286.58" y="489.35" width="3.79" height="15.39"/><rect class="cls-2" x="297.22" y="489.35" width="3.79" height="15.39"/><rect class="cls-2" x="307.86" y="489.35" width="3.79" height="15.39"/><rect class="cls-2" x="318.51" y="489.35" width="3.79" height="15.39"/><rect class="cls-6" x="322.3" y="489.35" width="35.72" height="15.39"/><rect class="cls-7" x="322.3" y="489.35" width="3.79" height="15.39"/><rect class="cls-7" x="332.94" y="489.35" width="3.79" height="15.39"/><rect class="cls-7" x="343.58" y="489.35" width="3.79" height="15.39"/><rect class="cls-7" x="354.23" y="489.35" width="3.79" height="15.39"/><rect class="cls-3" x="304.43" y="473.96" width="35.72" height="15.39"/><rect class="cls-8" x="304.43" y="473.96" width="3.79" height="15.39"/><rect class="cls-8" x="315.08" y="473.96" width="3.79" height="15.39"/><rect class="cls-8" x="325.72" y="473.96" width="3.79" height="15.39"/><rect class="cls-8" x="336.37" y="473.96" width="3.79" height="15.39"/><rect class="cls-4" x="221.58" y="466.09" width="29.67" height="5.31"/><rect class="cls-2" x="221.58" y="460.77" width="29.67" height="5.31"/><rect class="cls-1" x="347.52" y="377.68" width="18.94" height="5.03"/><rect class="cls-8" x="366.46" y="422.76" width="3.18" height="31.5"/><rect class="cls-3" x="363.27" y="422.76" width="3.18" height="31.5"/><rect class="cls-2" x="398.82" y="408.41" width="35.54" height="31.35"/><rect class="cls-4" x="434.36" y="408.41" width="13.07" height="31.35"/><polygon class="cls-4" points="412.4 424.61 416.62 422.85 415.52 422.22 418.36 417.31 415.75 415.8 412.91 420.71 411.82 420.08 412.4 424.61"/><polygon class="cls-4" points="417.94 429.6 414.32 426.83 414.32 428.1 408.64 428.1 408.64 431.11 414.32 431.11 414.32 432.37 417.94 429.6"/><polygon class="cls-4" points="419.47 422.3 418.88 426.82 419.98 426.19 422.81 431.1 425.42 429.6 422.58 424.69 423.68 424.06 419.47 422.3"/><polygon class="cls-4" points="421.4 422.58 418.64 417.79 418.38 418.24 416.9 420.81 418.75 424.02 419.06 421.61 421.4 422.58"/><polygon class="cls-4" points="411.68 422.83 408.92 427.61 410.14 427.61 412.4 427.61 414.29 424.35 412 425.3 411.68 422.83"/><polygon class="cls-4" points="416.78 431.1 422.25 431.1 420.51 428.09 416.76 428.09 418.74 429.6 416.78 431.1"/><path class="cls-4" d="M520.9,525h0Z" transform="translate(-108.49 -97.36)"/><rect class="cls-5" x="401.65" y="412.65" width="8.47" height="6.33"/><rect class="cls-6" x="402.59" y="414.13" width="0.97" height="3.37"/><rect class="cls-6" x="407.06" y="414.13" width="0.98" height="3.37"/><rect class="cls-6" x="405.29" y="414.13" width="1.27" height="3.37"/><rect class="cls-6" x="404.42" y="414.13" width="0.49" height="3.37"/><rect class="cls-6" x="408.7" y="414.13" width="0.48" height="3.37"/><circle class="cls-1" cx="366.45" cy="454.26" r="10.22"/><circle class="cls-8" cx="366.46" cy="454.26" r="3.85"/><circle class="cls-1" cx="437.81" cy="457.98" r="6.5"/><path class="cls-6" d="M487.85,541.4v10.22h50.07a9.17,9.17,0,0,1,16.77,0h7.74V541.4Z" transform="translate(-108.49 -97.36)"/><circle class="cls-8" cx="437.81" cy="457.98" r="2.45"/><rect class="cls-1" x="366.46" y="377.68" width="3.18" height="45.08"/><rect class="cls-8" x="363.27" y="377.68" width="3.18" height="45.08"/><path class="cls-7" d="M471.76,501.35v7h9.55v32a12.9,12.9,0,0,1,6.53,11.21h8.38V501.35Z" transform="translate(-108.49 -97.36)"/><path class="cls-6" d="M491.57,531.34a3.6,3.6,0,0,1-3.6,3.6H468.77a3.6,3.6,0,0,1,0-7.21H488A3.6,3.6,0,0,1,491.57,531.34Z" transform="translate(-108.49 -97.36)"/><rect class="cls-8" x="387.74" y="439.4" width="66.19" height="4.63"/><rect class="cls-9" x="97.55" y="148.27" width="33.27" height="86.57"/><polygon class="cls-8" points="64.28 234.84 64.28 148.27 97.55 148.27 97.55 142.07 58.08 142.07 58.08 241.04 97.55 241.04 97.55 234.84 64.28 234.84"/><polygon class="cls-1" points="137.03 142.07 97.55 142.07 97.55 148.27 130.82 148.27 130.82 234.84 97.55 234.84 97.55 241.04 137.03 241.04 137.03 142.07"/><rect class="cls-5" x="64.28" y="148.27" width="33.27" height="86.57"/><rect class="cls-3" x="97.55" y="148.27" width="33.27" height="86.57"/><polygon class="cls-3" points="79.15 176.02 71.1 167.97 73.34 165.73 79.01 171.39 89.39 159.6 91.76 161.69 79.15 176.02"/><rect class="cls-8" x="97.55" y="167.81" width="25.29" height="3.46"/><polygon class="cls-3" points="79.15 196.72 71.1 188.67 73.34 186.43 79 192.1 89.39 180.3 91.76 182.39 79.15 196.72"/><rect class="cls-8" x="97.55" y="188.51" width="25.29" height="3.46"/><polygon class="cls-3" points="79.15 217.43 71.1 209.37 73.34 207.13 79 212.8 89.39 201 91.76 203.1 79.15 217.43"/><rect class="cls-8" x="97.55" y="209.21" width="25.29" height="3.45"/><rect class="cls-7" x="234.47" y="283.42" width="3.74" height="49.55" transform="translate(-251.32 126.72) rotate(-40.01)"/><rect class="cls-2" x="253.23" y="326.12" width="3.74" height="8.7" transform="translate(-261.4 144.67) rotate(-40.1)"/><polygon class="cls-6" points="145.23 228.58 148.09 226.18 116.16 188.28 113.31 190.69 145.23 228.58"/><rect class="cls-4" x="256.09" y="323.72" width="3.73" height="8.7" transform="translate(-259.13 145.74) rotate(-40.08)"/><polygon class="cls-2" points="107.36 186.16 110.45 193.09 113.31 190.69 108.61 185.11 107.36 186.16"/><polygon class="cls-4" points="113.31 190.69 116.16 188.28 109.86 184.06 108.61 185.11 113.31 190.69"/><polygon class="cls-8" points="104.97 180.78 107.36 186.16 108.61 185.11 104.97 180.78"/><polygon class="cls-1" points="108.61 185.11 109.86 184.06 104.97 180.78 108.61 185.11"/><rect class="cls-7" x="79.46" y="142.07" width="36.18" height="8.41"/><rect class="cls-6" x="79.46" y="133.66" width="36.18" height="8.41"/><polygon class="cls-8" points="229.42 228.76 137.91 275.01 137.91 285.94 229.42 239.69 320.94 285.94 320.94 275.01 229.42 228.76"/><polygon class="cls-6" points="369.29 228.76 229.42 228.76 320.94 275.01 460.81 275.01 369.29 228.76"/><rect class="cls-1" x="320.94" y="275.01" width="139.87" height="10.93"/><polygon class="cls-3" points="320.94 285.94 229.42 239.69 137.91 285.94 137.91 323.87 320.94 323.87 320.94 285.94"/><polygon class="cls-8" points="229.42 353.09 277.77 353.09 320.94 353.09 320.94 323.87 137.91 323.87 137.91 353.09 229.42 353.09"/><rect class="cls-8" x="363.26" y="285.94" width="12.64" height="37.93"/><rect class="cls-8" x="427.15" y="285.94" width="12.64" height="37.93"/><rect class="cls-8" x="405.85" y="285.94" width="12.64" height="37.93"/><rect class="cls-8" x="384.56" y="285.94" width="12.64" height="37.93"/><rect class="cls-8" x="341.96" y="285.94" width="12.64" height="37.93"/><rect class="cls-8" x="448.45" y="285.94" width="12.37" height="37.93"/><rect class="cls-8" x="320.94" y="285.94" width="12.36" height="37.93"/><rect class="cls-6" x="405.85" y="323.87" width="12.64" height="29.22"/><rect class="cls-6" x="427.15" y="323.87" width="12.64" height="29.22"/><polygon class="cls-6" points="363.26 323.87 363.26 353.09 369.29 353.09 375.9 353.09 375.9 323.87 363.26 323.87"/><rect class="cls-6" x="320.94" y="323.87" width="12.36" height="29.22"/><rect class="cls-6" x="341.96" y="323.87" width="12.64" height="29.22"/><rect class="cls-6" x="448.45" y="323.87" width="12.37" height="29.22"/><rect class="cls-6" x="384.56" y="323.87" width="12.64" height="29.22"/><rect class="cls-3" x="333.31" y="285.94" width="8.66" height="37.93"/><rect class="cls-7" x="333.31" y="323.87" width="8.66" height="29.22"/><rect class="cls-3" x="439.79" y="285.94" width="8.66" height="37.93"/><rect class="cls-7" x="439.79" y="323.87" width="8.66" height="29.22"/><rect class="cls-3" x="418.49" y="285.94" width="8.66" height="37.93"/><rect class="cls-7" x="418.49" y="323.87" width="8.66" height="29.22"/><rect class="cls-3" x="397.2" y="285.94" width="8.66" height="37.93"/><rect class="cls-7" x="397.2" y="323.87" width="8.66" height="29.22"/><rect class="cls-3" x="375.9" y="285.94" width="8.66" height="37.93"/><rect class="cls-7" x="375.9" y="323.87" width="8.66" height="29.22"/><rect class="cls-3" x="354.6" y="285.94" width="8.66" height="37.93"/><rect class="cls-7" x="354.6" y="323.87" width="8.66" height="29.22"/><rect class="cls-8" x="184.76" y="272.51" width="32.75" height="13.43"/><rect class="cls-6" x="241.34" y="272.51" width="32.75" height="13.43"/><rect class="cls-7" x="184.76" y="303.01" width="44.66" height="50.07"/><rect class="cls-6" x="229.42" y="303.01" width="44.66" height="50.07"/><polygon class="cls-7" points="364.13 184.66 373.75 180.64 371.25 179.2 377.73 167.98 371.77 164.54 365.3 175.76 362.79 174.32 364.13 184.66"/><polygon class="cls-7" points="376.78 196.07 368.49 189.75 368.49 192.63 355.54 192.63 355.54 199.52 368.49 199.52 368.49 202.4 376.78 196.07"/><polygon class="cls-7" points="380.26 179.38 378.93 189.73 381.43 188.28 387.9 199.5 393.87 196.06 387.39 184.84 389.89 183.4 380.26 179.38"/><polygon class="cls-7" points="384.68 180.03 378.37 169.09 377.78 170.12 374.4 175.98 378.64 183.31 379.35 177.8 384.68 180.03"/><polygon class="cls-7" points="362.49 180.6 356.18 191.52 358.96 191.52 364.13 191.52 368.44 184.06 363.22 186.24 362.49 180.6"/><polygon class="cls-7" points="374.13 199.5 386.62 199.5 382.65 192.62 374.08 192.62 378.61 196.07 374.13 199.5"/><path class="cls-7" d="M472.63,288.88h0Z" transform="translate(-108.49 -97.36)"/><rect class="cls-7" x="209.6" y="176.44" width="9.34" height="22.4"/><polygon class="cls-7" points="193.57 176.44 184.21 176.44 178.88 169.28 188.22 169.28 193.57 176.44"/><polygon class="cls-7" points="209.6 176.44 218.94 176.44 224.29 169.28 214.95 169.28 209.6 176.44"/><path class="cls-7" d="M292.7,273.8v22.4h23.74V273.8Zm14.16,6.7,2,3.42-1.67-.7-.22,1.72-1.33-2.29,1.06-1.83Zm-4.09,2.08,2-3.51,1.87,1.08-2,3.51.78.45-3,1.25-.42-3.23Zm-.65,3.28,1.63-.68-1.35,2.33h-2.49l2-3.42Zm-7.4-9h6v4.52h-6Zm5,13.18v-2.15h4V287l2.59,2-2.59,2V290Zm5.81,0,1.4-1.07-1.42-1.08h2.68l1.24,2.15Zm4.31,0-2-3.51L307,287l.42-3.23,3,1.26-.78.45,2,3.51Z" transform="translate(-108.49 -97.36)"/><rect class="cls-7" x="186.9" y="180.53" width="0.7" height="2.41"/><rect class="cls-7" x="190.1" y="180.53" width="0.7" height="2.41"/><rect class="cls-7" x="188.83" y="180.53" width="0.91" height="2.41"/><rect class="cls-7" x="188.21" y="180.53" width="0.35" height="2.41"/><rect class="cls-7" x="191.26" y="180.53" width="0.35" height="2.41"/><path class="cls-7" d="M225.92,178.41H209.24v14.72h16.68Zm-7.38,4.4,1.3,2.25-1.1-.46-.15,1.13-.87-1.51.69-1.2Zm-2.69,1.37,1.33-2.3,1.22.71-1.33,2.31.51.3-2,.82-.27-2.12Zm-.43,2.15,1.07-.45-.88,1.53H214l1.29-2.24Zm-4.86-5.94h4v3h-4Zm3.28,8.66v-1.41h2.66v-.59l1.7,1.3-1.7,1.3v-.59Zm3.82,0,.92-.7-.93-.71h1.76l.82,1.41Zm2.83,0-1.33-2.31-.51.3.27-2.13,2,.82-.51.3,1.33,2.31Z" transform="translate(-108.49 -97.36)"/><rect class="cls-7" x="118.8" y="81.05" width="6.14" height="14.72"/><rect class="cls-7" x="102.51" y="83.73" width="0.46" height="1.58"/><rect class="cls-7" x="104.61" y="83.73" width="0.46" height="1.58"/><rect class="cls-7" x="103.78" y="83.73" width="0.6" height="1.58"/><rect class="cls-7" x="103.38" y="83.73" width="0.23" height="1.58"/><rect class="cls-7" x="105.38" y="83.73" width="0.23" height="1.58"/><path class="cls-7" d="M234.75,193.09h16.68V178.37H234.75Zm4.61-4.06v-1.42H242V187l1.7,1.3-1.7,1.3V189Zm3.82,0,.92-.71-.93-.71h1.76l.82,1.42Zm4.06-.71L246,189l-1.33-2.31-.51.3.27-2.12,2,.82-.52.3Zm-3.18-5.54,1.3,2.25-1.1-.46-.15,1.13-.87-1.51.7-1.2Zm-2.69,1.37,1.33-2.31,1.22.71-1.33,2.31.52.29-2,.83-.27-2.13Zm-.43,2.15,1.07-.45-.88,1.53H239.5l1.3-2.24Zm-4.86-5.94h4v3h-4Z" transform="translate(-108.49 -97.36)"/><rect class="cls-7" x="144.15" y="81.01" width="6.14" height="14.72"/><rect class="cls-7" x="128.03" y="83.7" width="0.46" height="1.58"/><rect class="cls-7" x="130.13" y="83.7" width="0.46" height="1.58"/><rect class="cls-7" x="129.3" y="83.7" width="0.6" height="1.58"/><rect class="cls-7" x="128.89" y="83.7" width="0.23" height="1.58"/><rect class="cls-7" x="130.9" y="83.7" width="0.23" height="1.58"/><path class="cls-7" d="M237.33,162.4H220.65v14.72h16.68ZM230,166.8l1.3,2.25-1.1-.46-.15,1.13-.87-1.51.7-1.2Zm-2.69,1.37,1.33-2.31,1.22.71-1.33,2.3.51.3-2,.83-.27-2.12Zm-.43,2.15,1.07-.45-.88,1.53h-1.63l1.29-2.24ZM222,164.39h4v3h-4Zm3.28,8.66v-1.41h2.66V171l1.7,1.3-1.7,1.3v-.59Zm3.82,0,.92-.7-.93-.71h1.76l.82,1.42Zm2.83,0-1.33-2.3-.51.3.27-2.12,2,.82-.51.3,1.33,2.3Z" transform="translate(-108.49 -97.36)"/><rect class="cls-7" x="130.2" y="65.04" width="6.14" height="14.72"/><rect class="cls-7" x="113.92" y="67.72" width="0.46" height="1.58"/><rect class="cls-7" x="116.02" y="67.72" width="0.45" height="1.58"/><rect class="cls-7" x="115.19" y="67.72" width="0.6" height="1.58"/><rect class="cls-7" x="114.78" y="67.72" width="0.23" height="1.58"/><rect class="cls-7" x="116.79" y="67.72" width="0.23" height="1.58"/><polygon class="cls-7" points="97.63 96.98 97.63 98.62 97.63 101.96 102.97 101.96 102.97 98.62 110.02 98.62 110.02 101.96 115.37 101.96 115.37 98.62 122.42 98.62 122.42 101.96 127.76 101.96 127.76 98.62 134.82 98.62 134.82 101.96 140.16 101.96 140.16 98.62 147.22 98.62 147.22 101.96 152.56 101.96 152.56 98.62 152.56 96.98 97.63 96.98"/><polygon class="cls-7" points="224.68 0.08 229.91 0 241.15 20.79 229.42 20.79 224.68 0.08"/><path class="cls-7" d="M377.46,121.77c0,3-6.66,4.12-16.18,4.12H331.12c-10.71,0-20.16-2.22-24.76-4.56h71A1.73,1.73,0,0,1,377.46,121.77Z" transform="translate(-108.49 -97.36)"/><polygon class="cls-7" points="224.68 50.14 230.11 50.22 241.15 26.25 228.97 26.25 224.68 50.14"/><path class="cls-7" d="M303.43,117.67l0,.1Z" transform="translate(-108.49 -97.36)"/><path class="cls-7" d="M303.55,117.41a.94.94,0,0,0,0,.26L300.71,107H305l6.29,8C307.6,115.26,303.55,115.51,303.55,117.41Z" transform="translate(-108.49 -97.36)"/><path class="cls-7" d="M303.47,117.77l.05.12A.66.66,0,0,1,303.47,117.77Z" transform="translate(-108.49 -97.36)"/><path class="cls-7" d="M375.36,117.91H361.54a1.15,1.15,0,1,1,0-2.3l8.49.14a61.9,61.9,0,0,0-15.62-1.7H317.2c-.73,0-1.94,0-3.35.1-4.3.24-10.46,1-10.46,3.21a1.19,1.19,0,0,0,0,.3l0,.1.05.12a6.17,6.17,0,0,0,2.84,2.29h71A4.3,4.3,0,0,0,375.36,117.91Z" transform="translate(-108.49 -97.36)"/><polygon class="cls-7" points="192.48 27.73 197.18 27.8 204.05 20.31 194.94 20.31 192.48 27.73"/><rect class="cls-7" x="120.05" y="439.22" width="6.64" height="15.92"/><path class="cls-7" d="M227.38,536.58h-18V552.5h18Zm-8,4.77,1.4,2.43-1.19-.5-.16,1.22-.94-1.63.75-1.3Zm-2.91,1.48,1.44-2.49,1.33.76-1.44,2.49.56.32-2.14.89-.3-2.3Zm-.46,2.33,1.16-.49-1,1.66h-1.77l1.4-2.43Zm-5.26-6.42h4.3v3.21h-4.3Zm3.55,9.37v-1.53h2.88v-.64l1.84,1.41-1.84,1.41v-.64Zm4.13,0,1-.76-1-.77h1.9l.88,1.53Zm3.06,0-1.44-2.5-.56.32.3-2.3,2.14.89-.56.32,1.44,2.5Z" transform="translate(-108.49 -97.36)"/><rect class="cls-7" x="102.75" y="442.13" width="0.49" height="1.71"/><rect class="cls-7" x="105.02" y="442.13" width="0.49" height="1.71"/><rect class="cls-7" x="104.12" y="442.13" width="0.65" height="1.71"/><rect class="cls-7" x="103.68" y="442.13" width="0.25" height="1.71"/><rect class="cls-7" x="105.85" y="442.13" width="0.25" height="1.71"/><path class="cls-7" d="M194.06,555.78a5.19,5.19,0,1,0,5.19,5.19A5.19,5.19,0,0,0,194.06,555.78Zm0,7.15a2,2,0,1,1,2-2A2,2,0,0,1,194.06,562.93Z" transform="translate(-108.49 -97.36)"/><path class="cls-7" d="M230.29,559.56a3.3,3.3,0,1,0,3.3,3.3A3.3,3.3,0,0,0,230.29,559.56Zm0,4.55a1.25,1.25,0,1,1,1.24-1.25A1.25,1.25,0,0,1,230.29,564.11Z" transform="translate(-108.49 -97.36)"/><path class="cls-7" d="M204.87,553.42v-18h-9.19V522.08H184.44v2.55h8v24.21h-1.52a1.83,1.83,0,0,0,0,3.66h1.52v2.07a6.36,6.36,0,0,1,3.23,0V552.5h1.62v2.78a6.55,6.55,0,0,1,3.32,5.69H226a4.66,4.66,0,0,1,8.52,0h3.93v-7.55Zm-9.19-4.58V539h1.62v9.83Z" transform="translate(-108.49 -97.36)"/><rect class="cls-7" x="565.02" y="360.59" width="5.17" height="12.39"/><path class="cls-7" d="M658.49,457.95v12.39h14V457.95Zm7.83,3.71,1.09,1.89-.92-.38-.12,1-.73-1.27.58-1Zm-2.26,1.15,1.12-1.94,1,.6-1.12,1.94.43.25-1.66.7-.23-1.79Zm-.49.84.13,1,.9-.38-.74,1.29h-1.37Zm-1.2,3.27v-1.19h2.24v-.5l1.43,1.09-1.43,1.1v-.5Zm3.22,0,.78-.59-.78-.6h1.48l.69,1.19Zm2.38,0L666.85,465l-.44.25.23-1.79,1.66.69-.43.25,1.12,1.94Z" transform="translate(-108.49 -97.36)"/><rect class="cls-7" x="572.15" y="378.95" width="5.17" height="12.39"/><path class="cls-7" d="M665.62,476.31V488.7h14V476.31Zm7.83,3.71,1.09,1.89-.92-.38-.12,1-.73-1.27.59-1Zm-2.26,1.16,1.12-1.94,1,.59-1.12,1.94.44.25-1.67.69-.23-1.79Zm-.49.83.13,1,.9-.38L671,483.9h-1.38Zm-1.2,3.27v-1.19h2.24v-.5l1.43,1.1-1.43,1.09v-.5Zm3.22,0,.78-.59-.78-.6h1.48l.68,1.19Zm2.38,0L674,483.34l-.43.25.23-1.79,1.67.69-.43.25,1.12,1.94Z" transform="translate(-108.49 -97.36)"/><path class="cls-7" d="M690.73,451.86H649.19V498.1H651v-7.63h8.81v7.63h1.76v-7.63h29.21v7.63h1.76V451.86ZM651,453.62h8.81v16.66H651Zm0,35.09V472h8.81V488.7Zm39.78,0H661.52V472h29.21Zm0-18.42H661.52V453.62h29.21Z" transform="translate(-108.49 -97.36)"/><path class="cls-7" d="M158.87,388.81c-.2-.48-.43-1-.66-1.42q-.78,1.09-1.59,2.15a22.92,22.92,0,0,1,2,8.44h-9.17l-1.6,1.81-.88,1-.88-1L144.45,398h-8.69v-6c1.12,0,2.25-.05,3.38-.1-.57-.69-1.14-1.39-1.7-2.1l-1.68,0v-2.26q-1.1-1.51-2.1-3.09v5.35c-2.94,0-5.9-.2-8.81-.51a30.7,30.7,0,0,1,1.18-3,32.1,32.1,0,0,1,1.63-3.11,26.14,26.14,0,0,0,5.78.93q-.73-1.2-1.39-2.44a23.88,23.88,0,0,1-3-.53q.8-1.13,1.72-2.19c-.3-.69-.58-1.39-.83-2.1a32.44,32.44,0,0,0-2.94,3.69,23.75,23.75,0,0,1-4.5-2.09,23.52,23.52,0,0,1,7-2.79c-.23-.74-.43-1.48-.6-2.24a26.24,26.24,0,0,0-8.63,3.68c-.57.37-1.15.79-1.73,1.25a26.63,26.63,0,0,0-7.15,8.65c-.31.6-.59,1.2-.83,1.78a26.16,26.16,0,0,0-2,9.3c0,.3,0,.6,0,.91s0,.6,0,.91a26.14,26.14,0,0,0,2,9.3c.24.58.53,1.18.83,1.78a26.46,26.46,0,0,0,7.15,8.65c.57.45,1.16.87,1.73,1.25a26.17,26.17,0,0,0,11.81,4.19c.78.08,1.58.13,2.38.13H135c.79,0,1.59-.05,2.38-.13a26.22,26.22,0,0,0,11.81-4.19c.57-.38,1.15-.8,1.73-1.25A26.54,26.54,0,0,0,158,411c.3-.58.58-1.18.83-1.78a26,26,0,0,0,2-9.3c0-.3,0-.6,0-.91s0-.61,0-.91A26,26,0,0,0,158.87,388.81Zm-38.51-8.91a26.47,26.47,0,0,0,5.34,2.69,32.81,32.81,0,0,0-2.86,6.51c-3.05-.39-6.1-.93-9.07-1.6A24.16,24.16,0,0,1,120.36,379.9Zm-7.58,9.62c3.1.72,6.29,1.29,9.47,1.7a33.27,33.27,0,0,0-.91,6.66c0,.09-10.51.09-10.51.09A23.69,23.69,0,0,1,112.77,389.52Zm-1.94,10.55h10.51a33.31,33.31,0,0,0,.91,6.75c-3.2.41-6.39,1-9.47,1.7A23.67,23.67,0,0,1,110.84,400.06Zm2.93,10.48c3-.68,6-1.22,9.07-1.61a32.63,32.63,0,0,0,2.86,6.51,26.23,26.23,0,0,0-5.34,2.68A24.22,24.22,0,0,1,113.77,410.54Zm8.69,9a24.17,24.17,0,0,1,4.5-2.09,32.68,32.68,0,0,0,4.44,5.23A23.62,23.62,0,0,1,122.47,419.55Zm11.2,2.47c-.36-.32-.69-.62-1-.92a31.06,31.06,0,0,1-3.65-4.24,24.05,24.05,0,0,1,4.66-.67Zm0-8.14a25.76,25.76,0,0,0-6,.94,31.08,31.08,0,0,1-1.63-3.1,30.22,30.22,0,0,1-1.18-3c2.92-.3,5.88-.47,8.81-.51Zm0-7.86c-3.15,0-6.32.22-9.43.56a31.11,31.11,0,0,1-.92-6.41v-.11h10.35Zm0-8.05H123.32v-.11a31.1,31.1,0,0,1,.92-6.41c3.13.34,6.3.52,9.43.56Zm2.1,2.1h10.35v.11a30.7,30.7,0,0,1-.91,6.41c-3.12-.34-6.29-.52-9.43-.56Zm0,8.13c2.93,0,5.9.2,8.81.51a31.27,31.27,0,0,1-1.18,3,30.83,30.83,0,0,1-1.63,3.1,25.8,25.8,0,0,0-6-.94Zm1,12.91c-.31.3-.64.61-1,.92v-5.83a24.07,24.07,0,0,1,4.66.67A31.34,31.34,0,0,1,136.76,421.1Zm1.26,1.59a32.63,32.63,0,0,0,4.44-5.23,24,24,0,0,1,4.5,2.09A23.65,23.65,0,0,1,138,422.69Zm11-4.56a25.9,25.9,0,0,0-5.34-2.68,32.68,32.68,0,0,0,2.86-6.51c3.05.39,6.1.93,9.07,1.61A24.25,24.25,0,0,1,149.07,418.13Zm7.59-9.62c-3.09-.72-6.28-1.29-9.48-1.7a32.94,32.94,0,0,0,.91-6.66v-.09h10.51A23.75,23.75,0,0,1,156.66,408.51Z" transform="translate(-108.49 -97.36)"/><path class="cls-7" d="M140.2,375.75a23.6,23.6,0,0,1,6.09,2.36c.22,0,.43,0,.65,0a10.74,10.74,0,0,0,3-.44c-.28-.2-.55-.39-.82-.57A26.26,26.26,0,0,0,137.78,373,10.7,10.7,0,0,0,140.2,375.75Z" transform="translate(-108.49 -97.36)"/><path class="cls-7" d="M132.51,377.1c.35.88.74,1.75,1.16,2.6a43.09,43.09,0,0,0,2.57,4.43,66.93,66.93,0,0,0,4.12,5.55q.85,1,1.72,2.05c1.22,1.42,2.43,2.78,3.6,4.08l.33.37.93,1,1-1.16.17-.2c1.58-1.76,3.24-3.63,4.87-5.59.72-.87,1.44-1.76,2.13-2.68l.32-.43c.5-.67,1-1.35,1.47-2,3.6-5.2,6.33-11,6.33-17.47,0-9.62-6.72-16.33-16.33-16.33S130.6,358,130.6,367.67a23.83,23.83,0,0,0,.63,5.38A28.13,28.13,0,0,0,132.51,377.1Zm14.43-22.8a13.1,13.1,0,0,1,5.19,25.12,12.9,12.9,0,0,1-2.64.82c-.42.08-.84.14-1.27.19s-.85.06-1.28.06a13.05,13.05,0,0,1-5.37-1.15A13.2,13.2,0,0,1,135,372.8a13.09,13.09,0,0,1,11.92-18.5Z" transform="translate(-108.49 -97.36)"/><polygon class="cls-7" points="503.65 80.68 481.56 69.52 447.79 69.52 469.89 80.68 503.65 80.68"/><rect class="cls-7" x="437.01" y="80.08" width="7.91" height="3.24"/><rect class="cls-7" x="450.67" y="80.08" width="7.91" height="3.24"/><polygon class="cls-7" points="460.46 99.53 461.2 99.53 469.89 99.53 469.89 92.47 460.46 92.47 460.46 99.53"/><rect class="cls-7" x="480.1" y="83.32" width="3.05" height="9.15"/><rect class="cls-7" x="495.52" y="83.32" width="3.05" height="9.15"/><rect class="cls-7" x="490.38" y="83.32" width="3.05" height="9.15"/><rect class="cls-7" x="485.24" y="83.32" width="3.05" height="9.15"/><rect class="cls-7" x="474.96" y="83.32" width="3.05" height="9.15"/><rect class="cls-7" x="500.66" y="83.32" width="2.98" height="9.15"/><rect class="cls-7" x="469.89" y="83.32" width="2.99" height="9.15"/><rect class="cls-7" x="472.87" y="92.47" width="2.09" height="7.06"/><rect class="cls-7" x="498.57" y="92.47" width="2.09" height="7.06"/><rect class="cls-7" x="493.43" y="92.47" width="2.09" height="7.06"/><rect class="cls-7" x="488.29" y="92.47" width="2.09" height="7.06"/><rect class="cls-7" x="483.15" y="92.47" width="2.09" height="7.06"/><rect class="cls-7" x="478.01" y="92.47" width="2.09" height="7.06"/><polygon class="cls-7" points="437.01 92.47 437.01 99.53 446.81 99.53 446.81 92.47 446.81 87.44 437.01 87.44 437.01 92.47"/><polygon class="cls-7" points="448.69 92.47 448.69 99.53 458.58 99.53 458.58 92.47 458.58 87.44 448.69 87.44 448.69 92.47"/><polygon class="cls-7" points="425.7 83.32 425.7 92.47 425.7 99.53 426.45 99.53 428.04 99.53 435.13 99.53 435.13 92.47 428.04 92.47 428.04 82.14 447.79 72.16 447.79 69.52 425.7 80.68 425.7 83.32"/><polygon class="cls-7" points="566.58 306.6 548.49 285.13 544.93 282.74 542.15 280.89 543.51 283.93 545.26 287.86 563.34 309.32 566.51 313.09 568.13 311.73 569.75 310.37 566.58 306.6"/><polygon class="cls-7" points="556.8 311.5 537.96 311.5 519.11 311.5 519.11 262.47 527.71 262.47 527.71 263.72 548.2 263.73 548.2 262.47 556.8 262.47 556.8 291.87 560.31 296.05 560.31 258.96 548.2 258.96 548.2 254.2 527.71 254.2 527.71 258.96 515.6 258.96 515.6 315.01 537.96 315.01 560.31 315.01 560.31 308.84 556.8 304.68 556.8 311.5"/><polygon class="cls-7" points="534.67 270.07 533.33 268.89 527.45 275.57 524.24 272.36 522.97 273.63 527.53 278.19 534.67 270.07"/><rect class="cls-7" x="537.96" y="273.54" width="14.33" height="1.96"/><polygon class="cls-7" points="533.33 280.61 527.45 287.3 524.24 284.09 522.97 285.35 527.53 289.91 534.68 281.8 533.33 280.61"/><polygon class="cls-7" points="537.96 285.26 537.96 287.22 542.78 287.22 541.91 285.26 537.96 285.26"/><polygon class="cls-7" points="524.24 295.81 522.97 297.08 527.53 301.64 534.67 293.52 533.33 292.34 527.45 299.02 524.24 295.81"/><polygon class="cls-7" points="551.97 298.94 550.33 296.99 537.96 296.99 537.96 298.95 551.97 298.94"/><path class="cls-7" d="M604.33,563.29a5.82,5.82,0,1,0,5.82,5.82A5.82,5.82,0,0,0,604.33,563.29Zm0,9.67a3.86,3.86,0,1,1,3.86-3.85A3.86,3.86,0,0,1,604.33,573Z" transform="translate(-108.49 -97.36)"/><circle class="cls-7" cx="495.84" cy="471.75" r="1.57"/><circle class="cls-7" cx="522.21" cy="471.75" r="1.57"/><path class="cls-7" d="M639.2,566.95v-36.1H633v8.22h-3.79v1.49H633v16.2h-6.84l-5-16.2h-22.6v13.81h-2.46v9.93H598l-.55,1.57h-1.35v3.24h1.56l2.28-6.47h9.26l2.28,6.47H624l2.28-6.47h9.21l2.23,6.34H653.4v-2Zm-25.61-14.46v-9.71H619l.47,1.68.46,1.65.33,1.18.8,2.83.93,3.33h-8.43Zm-12.38-2.74v-7h3.13v10.68h-3.13Zm7.06,7v3h-7.86v-4.56h7.86Zm-2-3.31V542.78h6.29v10.68h-6.29Zm17.58,12.42-12.15,0-.56-1.6h13.27Z" transform="translate(-108.49 -97.36)"/><path class="cls-7" d="M636.51,569a5.81,5.81,0,0,0-3.51-5.21,5.64,5.64,0,0,0-1.65-.44,5.82,5.82,0,1,0,5.16,5.78S636.52,569,636.51,569Zm-2,.91a3.88,3.88,0,1,1-3.2-4.58l.1,0a3.57,3.57,0,0,1,.55.14,3.9,3.9,0,0,1,.56.24l.11.07.36.23.11.09a3.84,3.84,0,0,1,.41.37l.1.1a4.38,4.38,0,0,1,.4.53l0,.09a3.54,3.54,0,0,1,.25.51l.07.17a4.19,4.19,0,0,1,.17.65,4,4,0,0,1,.05.6A3.73,3.73,0,0,1,634.48,569.89Z" transform="translate(-108.49 -97.36)"/><polygon class="cls-7" points="368.44 10.81 360.47 10.81 348.64 10.81 340.67 10.81 340.67 15.63 368.44 15.63 368.44 10.81"/><path class="cls-7" d="M467.42,122.51h9.51V114H449.17v2.33h15.18Zm5.75-6.67a1.44,1.44,0,1,1-1.44,1.44A1.44,1.44,0,0,1,473.16,115.85Zm-4.4,0a1.44,1.44,0,1,1-1.44,1.44A1.44,1.44,0,0,1,468.76,115.85Z" transform="translate(-108.49 -97.36)"/><path class="cls-7" d="M510.73,123.57H466.64l-3.07-6.13H435.25l5.33,6.13,5.06,5.4h71.74a12.52,12.52,0,0,0,1.23-5.4Z" transform="translate(-108.49 -97.36)"/><polygon class="cls-7" points="348.64 5.52 348.64 7.63 348.64 9.75 360.47 9.75 360.47 7.63 360.47 5.52 348.64 5.52"/><path class="cls-7" d="M509.22,117.44h-5.61v-6.13H489.38v6.13h-5.61v6.13h1.51v-4.7H488v4.7h1.51v-4.7h2.73v4.7h1.51v-4.7h2.73v4.7H498v-4.7h2.73v4.7h1.51v-4.7H505v4.7h1.51v-4.7h2.73v4.7h1.51v-6.13Zm-18.33,0v-4.7h2.73v4.7h-2.73Zm4.24,0v-4.7h2.73v4.7h-2.73Zm4.24,0v-4.7h2.73v4.7h-2.73Z" transform="translate(-108.49 -97.36)"/><path class="cls-7" d="M446.55,129.95l5.79,6.18h53.72a12.53,12.53,0,0,0,10.8-6.18Z" transform="translate(-108.49 -97.36)"/><rect class="cls-2" x="60.21" y="336.68" width="41.87" height="36.93"/><rect class="cls-4" x="102.07" y="336.68" width="15.4" height="36.93"/><polygon class="cls-4" points="76.21 355.76 81.17 353.69 79.88 352.95 83.22 347.16 80.15 345.39 76.81 351.17 75.52 350.43 76.21 355.76"/><polygon class="cls-4" points="82.73 361.65 78.46 358.38 78.46 359.87 71.78 359.87 71.78 363.42 78.46 363.42 78.46 364.91 82.73 361.65"/><polygon class="cls-4" points="84.53 353.04 83.84 358.37 85.13 357.63 88.47 363.41 91.54 361.64 88.2 355.85 89.49 355.11 84.53 353.04"/><polygon class="cls-4" points="86.81 353.37 83.55 347.74 83.25 348.26 81.5 351.29 83.69 355.07 84.05 352.22 86.81 353.37"/><polygon class="cls-4" points="75.36 353.67 72.11 359.3 73.55 359.3 76.21 359.3 78.43 355.45 75.74 356.58 75.36 353.67"/><polygon class="cls-4" points="81.36 363.41 87.81 363.41 85.75 359.86 81.34 359.87 83.68 361.65 81.36 363.41"/><path class="cls-4" d="M184.71,456.66h0Z" transform="translate(-108.49 -97.36)"/><rect class="cls-5" x="63.54" y="341.68" width="9.98" height="7.45"/><rect class="cls-6" x="64.65" y="343.42" width="1.14" height="3.98"/><rect class="cls-6" x="69.92" y="343.42" width="1.15" height="3.98"/><rect class="cls-6" x="67.82" y="343.42" width="1.51" height="3.98"/><rect class="cls-6" x="66.81" y="343.42" width="0.57" height="3.98"/><rect class="cls-6" x="71.84" y="343.42" width="0.57" height="3.98"/><rect class="cls-2" x="117.47" y="336.6" width="41.87" height="36.93"/><rect class="cls-4" x="159.34" y="336.6" width="15.4" height="36.93"/><polygon class="cls-4" points="133.47 355.68 138.44 353.61 137.15 352.86 140.49 347.08 137.41 345.31 134.07 351.09 132.79 350.35 133.47 355.68"/><polygon class="cls-4" points="140 361.57 135.72 358.3 135.72 359.79 129.04 359.79 129.04 363.34 135.72 363.34 135.72 364.83 140 361.57"/><polygon class="cls-4" points="141.79 352.96 141.11 358.29 142.39 357.55 145.73 363.33 148.81 361.56 145.47 355.77 146.76 355.03 141.79 352.96"/><polygon class="cls-4" points="144.07 353.29 140.82 347.66 140.51 348.18 138.77 351.2 140.95 354.99 141.32 352.14 144.07 353.29"/><polygon class="cls-4" points="132.63 353.59 129.38 359.22 130.81 359.22 133.47 359.22 135.7 355.37 133 356.5 132.63 353.59"/><polygon class="cls-4" points="138.63 363.33 145.07 363.33 143.02 359.78 138.61 359.78 140.94 361.57 138.63 363.33"/><path class="cls-4" d="M242,456.58h0Z" transform="translate(-108.49 -97.36)"/><rect class="cls-5" x="120.8" y="341.6" width="9.98" height="7.45"/><rect class="cls-6" x="121.91" y="343.34" width="1.15" height="3.97"/><rect class="cls-6" x="127.18" y="343.34" width="1.15" height="3.97"/><rect class="cls-6" x="125.09" y="343.34" width="1.5" height="3.97"/><rect class="cls-6" x="124.08" y="343.34" width="0.57" height="3.97"/><rect class="cls-6" x="129.1" y="343.34" width="0.57" height="3.97"/><rect class="cls-2" x="88.84" y="299.67" width="41.86" height="36.93"/><rect class="cls-4" x="130.7" y="299.67" width="15.4" height="36.93"/><polygon class="cls-4" points="104.84 318.75 109.81 316.68 108.52 315.93 111.85 310.15 108.78 308.38 105.44 314.16 104.15 313.42 104.84 318.75"/><polygon class="cls-4" points="111.36 324.63 107.09 321.37 107.09 322.86 100.41 322.86 100.41 326.41 107.09 326.41 107.09 327.9 111.36 324.63"/><polygon class="cls-4" points="113.16 316.03 112.47 321.36 113.76 320.62 117.1 326.4 120.17 324.63 116.83 318.84 118.12 318.1 113.16 316.03"/><polygon class="cls-4" points="115.44 316.36 112.19 310.72 111.88 311.25 110.13 314.27 112.32 318.06 112.69 315.21 115.44 316.36"/><polygon class="cls-4" points="103.99 316.66 100.74 322.29 102.18 322.29 104.84 322.29 107.06 318.44 104.37 319.56 103.99 316.66"/><polygon class="cls-4" points="110 326.4 116.44 326.4 114.39 322.85 109.97 322.85 112.31 324.63 110 326.4"/><path class="cls-4" d="M213.34,419.65h0Z" transform="translate(-108.49 -97.36)"/><rect class="cls-5" x="92.17" y="304.67" width="9.97" height="7.45"/><rect class="cls-6" x="93.28" y="306.41" width="1.14" height="3.98"/><rect class="cls-6" x="98.55" y="306.41" width="1.15" height="3.98"/><rect class="cls-6" x="96.46" y="306.41" width="1.5" height="3.98"/><rect class="cls-6" x="95.44" y="306.41" width="0.58" height="3.98"/><rect class="cls-6" x="100.47" y="306.41" width="0.57" height="3.98"/><rect class="cls-10" x="52.38" y="373.61" width="137.86" height="4.14"/><rect class="cls-4" x="52.38" y="377.75" width="13.41" height="8.37"/><rect class="cls-4" x="83.49" y="377.75" width="13.41" height="8.37"/><rect class="cls-4" x="114.6" y="377.75" width="13.41" height="8.37"/><rect class="cls-4" x="145.71" y="377.75" width="13.41" height="8.37"/><rect class="cls-4" x="176.83" y="377.75" width="13.41" height="8.37"/><rect class="cls-2" x="414.08" y="348.58" width="63.72" height="56.21"/><rect class="cls-4" x="477.8" y="348.58" width="23.44" height="56.21"/><polygon class="cls-4" points="437.59 348.58 414.08 348.58 400.73 330.6 424.16 330.6 437.59 348.58"/><polygon class="cls-2" points="477.81 348.58 501.25 348.58 514.67 330.6 491.23 330.6 477.81 348.58"/><polygon class="cls-4" points="438.44 377.62 445.99 374.47 444.03 373.33 449.11 364.53 444.44 361.83 439.35 370.63 437.39 369.5 438.44 377.62"/><polygon class="cls-4" points="448.37 386.58 441.87 381.61 441.87 383.88 431.7 383.88 431.7 389.28 441.87 389.28 441.87 391.54 448.37 386.58"/><polygon class="cls-4" points="451.1 373.48 450.05 381.6 452.01 380.46 457.09 389.27 461.77 386.56 456.69 377.76 458.65 376.63 451.1 373.48"/><polygon class="cls-4" points="454.57 373.98 449.62 365.4 449.15 366.2 446.5 370.81 449.82 376.56 450.38 372.24 454.57 373.98"/><polygon class="cls-4" points="437.15 374.44 432.2 383 434.39 383 438.44 383 441.82 377.15 437.72 378.86 437.15 374.44"/><polygon class="cls-4" points="446.29 389.27 456.09 389.27 452.97 383.86 446.25 383.86 449.81 386.58 446.29 389.27"/><path class="cls-4" d="M546.93,480.37h0Z" transform="translate(-108.49 -97.36)"/><rect class="cls-5" x="419.16" y="356.19" width="15.18" height="11.34"/><rect class="cls-6" x="420.84" y="358.84" width="1.75" height="6.05"/><rect class="cls-6" x="428.86" y="358.84" width="1.75" height="6.05"/><rect class="cls-6" x="425.68" y="358.84" width="2.29" height="6.05"/><rect class="cls-6" x="424.13" y="358.84" width="0.87" height="6.05"/><rect class="cls-6" x="431.79" y="358.84" width="0.87" height="6.05"/><polygon class="cls-1" points="143.44 432.7 143.44 434.8 149.82 434.8 149.82 441.26 151.7 441.26 151.7 434.8 171.48 434.8 172.75 432.7 143.44 432.7"/><polygon class="cls-1" points="301.81 432.7 285.17 432.7 286.43 434.8 301.81 434.8 301.81 432.7"/><rect class="cls-6" x="251.27" y="375.78" width="3.09" height="56.92"/><rect class="cls-7" x="143.44" y="370.27" width="104.16" height="38.39"/><polygon class="cls-2" points="301.81 408.33 286.76 384.63 254.36 384.63 254.36 408.66 301.81 408.66 301.81 408.33"/><rect class="cls-6" x="143.44" y="408.66" width="104.16" height="24.04"/><polygon class="cls-6" points="258.13 389.47 258.13 400.31 268.98 389.47 258.13 389.47"/><polygon class="cls-6" points="273.93 389.47 258.13 405.26 258.13 405.49 261.44 405.49 277.47 389.47 273.93 389.47"/><polygon class="cls-6" points="284.96 390.47 269.94 405.49 277.63 405.49 287.95 395.17 284.96 390.47"/><polygon class="cls-6" points="289.87 398.21 282.59 405.49 286.13 405.49 291.25 400.37 289.87 398.21"/><polygon class="cls-7" points="268.98 389.47 258.13 400.31 258.13 405.26 273.93 389.47 268.98 389.47"/><polygon class="cls-7" points="284.32 389.47 277.47 389.47 261.44 405.49 269.94 405.49 284.96 390.47 284.32 389.47"/><polygon class="cls-7" points="287.95 395.17 277.63 405.49 282.59 405.49 289.87 398.21 287.95 395.17"/><polygon class="cls-7" points="291.25 400.37 286.13 405.49 294.5 405.49 291.25 400.37"/><rect class="cls-4" x="254.36" y="408.66" width="47.45" height="13.69"/><rect class="cls-4" x="254.36" y="427.53" width="47.45" height="5.17"/><rect class="cls-2" x="254.36" y="422.35" width="47.45" height="5.18"/><rect class="cls-2" x="258.13" y="412.17" width="12.53" height="6.13"/><rect class="cls-1" x="260.64" y="413.7" width="7.51" height="3.07"/><rect class="cls-1" x="301.81" y="419.85" width="2.71" height="10.18"/><rect class="cls-4" x="301.81" y="434.19" width="1.75" height="5.09"/><polygon class="cls-1" points="267.46 432.7 252.82 432.7 212.16 432.7 190.46 432.7 143.44 432.7 143.44 434.8 191.73 434.8 212.16 434.8 252.82 434.8 266.19 434.8 301.81 434.8 301.81 432.7 267.46 432.7"/><rect class="cls-1" x="157.79" y="434.8" width="144.02" height="5.72"/><polygon class="cls-3" points="189.78 431.93 173.4 431.93 169.87 437.76 168.2 440.52 194.97 440.52 193.31 437.76 189.78 431.93"/><circle class="cls-1" cx="181.59" cy="446.14" r="12.45"/><circle class="cls-3" cx="181.59" cy="446.14" r="6.63"/><ellipse class="cls-5" cx="181.59" cy="446.14" rx="2.28" ry="2.28"/><polygon class="cls-1" points="196.03 438.64 195.49 437.76 193.46 434.39 191.97 431.93 190.77 430.03 172.28 430.03 171.21 431.93 169.72 434.39 167.69 437.76 167.16 438.64 163.96 443.92 165.56 444.88 169.34 438.64 169.87 437.76 171.91 434.39 173.4 431.93 189.78 431.93 191.27 434.39 193.31 437.76 193.84 438.64 197.62 444.88 199.22 443.92 196.03 438.64"/><polygon class="cls-3" points="285.67 431.93 269.28 431.93 265.75 437.76 264.08 440.52 290.86 440.52 289.19 437.76 285.67 431.93"/><circle class="cls-1" cx="277.47" cy="446.14" r="12.45"/><circle class="cls-3" cx="277.47" cy="446.14" r="6.63"/><circle class="cls-5" cx="277.47" cy="446.14" r="2.28"/><polygon class="cls-1" points="291.9 438.64 291.37 437.76 289.34 434.39 287.85 431.93 286.65 430.03 268.16 430.03 267.09 431.93 265.6 434.39 263.57 437.76 263.04 438.64 259.84 443.92 261.44 444.88 265.22 438.64 265.75 437.76 267.79 434.39 269.28 431.93 285.67 431.93 287.15 434.39 289.19 437.76 289.72 438.64 293.5 444.88 295.1 443.92 291.9 438.64"/></svg>