<svg id="Layer_1" data-name="Layer 1" xmlns="http://www.w3.org/2000/svg" viewBox="0 0 584 536.25"><defs><style>.cls-1{fill:#29292c}.cls-2{fill:#fcd260}.cls-3{fill:#d9dae2}.cls-4{fill:#f49d3d}.cls-5{fill:#fff}.cls-6{fill:#325b96}.cls-7{fill:#64a4ea}.cls-8{fill:#8a8a95}.cls-9{fill:#12629e}.cls-10{fill:#d17428}</style></defs><title>ORVZDS1</title><path class="cls-1" d="M537.56 215.57v-90.58h-15.55v65.03h-29.03v5.45h29.03v25.19h51.19v-5.09h-35.64z"/><path class="cls-2" d="M525.91 145.62H512.5v3.76h13.41v71.28h8.03v-75.04h-8.03z"/><path class="cls-3" d="M438.93 204.76l-5.71 16.25h34.66l-5.72-16.25h-23.23zm66.29 0l-5.72 16.25h26.41v-16.25h-20.69z"/><path class="cls-2" d="M492.18 149.38h-56.72v34.66h-6.17v5.98h75.57l-12.68-40.64z"/><path class="cls-4" d="M522.02 195.47h3.9v6.08h-3.9zm-50.73 25.54h24.81l2.85-8.12h-30.52l2.86 8.12zm-42 0h.52l2.86-8.12h-3.38v8.12zm7.36-19.46h27.79l2.6 7.4h33.3l2.6-7.4h19.07v-6.08h-15.46l-1.69-5.45h-75.57v18.93h4.76l2.6-7.4z"/><path class="cls-2" d="M429.29 208.95v3.94h3.38l1.38-3.94h-4.76zm37.75 0l1.39 3.94h30.52l1.39-3.94h-33.3z"/><path class="cls-1" d="M436.65 201.55l-6.84 19.46h3.41l5.71-16.25h23.23l5.72 16.25h3.41l-6.85-19.46h-27.79zm68.57 3.21h20.69v-3.21h-22.97l-6.84 19.46h3.4l5.72-16.25z"/><path class="cls-1" d="M558.56 303.77a14.61 14.61 0 1 0 14.61 14.61 14.61 14.61 0 0 0-14.61-14.61zm0 24.28a9.68 9.68 0 1 1 9.68-9.68 9.68 9.68 0 0 1-9.68 9.63z" transform="translate(-108.49 -97.36)"/><circle class="cls-3" cx="450.07" cy="221.01" r="9.68"/><circle class="cls-5" cx="450.07" cy="221.01" r="3.93"/><path class="cls-1" d="M624.73 303.77a14.61 14.61 0 1 0 14.61 14.61 14.6 14.6 0 0 0-14.61-14.61zm0 24.28a9.68 9.68 0 1 1 9.68-9.68 9.68 9.68 0 0 1-9.68 9.63z" transform="translate(-108.49 -97.36)"/><circle class="cls-3" cx="516.23" cy="221.01" r="9.68"/><circle class="cls-5" cx="516.23" cy="221.01" r="3.93"/><path class="cls-1" d="M440.21 186h19.73v11.44h-19.73z"/><path class="cls-6" d="M442.22 172.4h7.85v9.31h-7.85zm0-17.49h7.85v9.31h-7.85z"/><path class="cls-7" d="M442.22 164.23h7.85v8.17h-7.85z"/><path class="cls-6" d="M489.28 163.28l-15.99 16v2.43h1.35l15.48-15.47-.84-2.96zm2.83 10.07l-8.37 8.36h10.71l-2.34-8.36zm-18.82.62l14.84-14.83-1.19-4.23h-5.85l-7.8 7.81v11.25zm-2.68-19.06h-2.41l-13.38 13.38v3.79l15.79-15.78v-1.39zm0 10.49l-15.79 15.78v.53h10.73l5.06-5.06V165.4zm-15.79-10.49v8.08l8.08-8.08h-8.08z"/><path class="cls-7" d="M462.9 154.91l-8.08 8.08v5.3l13.38-13.38h-5.3zm10.39 7.81l7.8-7.81h-7.8v7.81zm-2.68-6.42l-15.79 15.78v9.1l15.79-15.78v-9.1zm17.52 2.84l-14.84 14.83v5.31l15.99-16-1.15-4.14zm-17.52 17.51l-5.06 5.06h5.06v-5.06zm19.51-10.41l-15.48 15.47h9.1l8.37-8.36-1.99-7.11z"/><path class="cls-6" d="M282.38 59.49l13.12-.2 28.2 52.16h-29.41l-11.91-51.96z"/><path class="cls-6" d="M502 215c0 7.41-16.7 10.34-40.6 10.34h-75.67c-26.88 0-50.59-5.58-62.14-11.46h178.26A4.53 4.53 0 0 1 502 215z" transform="translate(-108.49 -97.36)"/><path class="cls-7" d="M282.38 182.24l13.62.21 27.7-60.17h-30.54l-10.78 59.96z"/><path class="cls-4" d="M316.24 207.61l.09.25c-.03-.08-.07-.17-.09-.25z" transform="translate(-108.49 -97.36)"/><path class="cls-6" d="M316.53 207a2.45 2.45 0 0 0 .1.65l-7.21-26.75h10.69l15.79 20.19c-9.21.47-19.37 1.11-19.37 5.91zm-.2.86c0 .1.09.2.13.3a1.7 1.7 0 0 1-.13-.3z" transform="translate(-108.49 -97.36)"/><path class="cls-7" d="M342.38 198.79c3.54-.2 6.57-.25 8.4-.25h93.36c16.63 0 29.71 1.72 39.2 4.26l-21.29-.35a2.88 2.88 0 0 0 0 5.77h34.7c2.9 1.86 4.62 3.81 5.1 5.69H323.59c-3.82-1.94-6.29-3.92-7.13-5.74 0-.1-.1-.21-.13-.3l-.09-.25a3 3 0 0 1-.11-.76c-.01-5.59 15.45-7.48 26.25-8.07z" transform="translate(-108.49 -97.36)"/><path class="cls-6" d="M459.17 205.33a2.88 2.88 0 0 1 2.88-2.88l21.29.35a48.72 48.72 0 0 1 13.4 5.42h-34.7a2.88 2.88 0 0 1-2.87-2.89z" transform="translate(-108.49 -97.36)"/><path class="cls-6" d="M201.59 128.88l11.78.18 17.25-18.81h-22.87l-6.16 18.63z"/><path class="cls-1" d="M201.58 471.4h69.68v12.09h-69.68z"/><path class="cls-2" d="M201.58 483.49h69.68v21.25h-69.68z"/><path class="cls-4" d="M286.58 489.35h35.72v15.39h-35.72z"/><path class="cls-1" d="M486.29 602.1H355.87l-7.7-15.39H277.1l13.37 15.39 12.69 13.56h180a31.38 31.38 0 0 0 3.13-13.56z" transform="translate(-108.49 -97.36)"/><path class="cls-4" d="M454.79 633.61a31.48 31.48 0 0 0 28.41-18h-180l16.81 18z" transform="translate(-108.49 -97.36)"/><circle class="cls-1" cx="250.75" cy="491.62" r="3.6"/><circle class="cls-1" cx="261.8" cy="491.62" r="3.6"/><path class="cls-2" d="M286.58 489.35h3.79v15.39h-3.79zm10.64 0h3.79v15.39h-3.79zm10.64 0h3.79v15.39h-3.79zm10.65 0h3.79v15.39h-3.79z"/><path class="cls-6" d="M322.3 489.35h35.72v15.39H322.3z"/><path class="cls-7" d="M322.3 489.35h3.79v15.39h-3.79zm10.64 0h3.79v15.39h-3.79zm10.64 0h3.79v15.39h-3.79zm10.65 0h3.79v15.39h-3.79z"/><path class="cls-3" d="M304.43 473.96h35.72v15.39h-35.72z"/><path class="cls-8" d="M304.43 473.96h3.79v15.39h-3.79zm10.65 0h3.79v15.39h-3.79zm10.64 0h3.79v15.39h-3.79zm10.65 0h3.79v15.39h-3.79z"/><path class="cls-4" d="M221.58 466.09h29.67v5.31h-29.67z"/><path class="cls-2" d="M221.58 460.77h29.67v5.31h-29.67z"/><path class="cls-1" d="M347.52 377.68h18.94v5.03h-18.94z"/><path class="cls-8" d="M366.46 422.76h3.18v31.5h-3.18z"/><path class="cls-3" d="M363.27 422.76h3.18v31.5h-3.18z"/><path class="cls-2" d="M398.82 408.41h35.54v31.35h-35.54z"/><path class="cls-4" d="M434.36 408.41h13.07v31.35h-13.07zm-21.96 16.2l4.22-1.76-1.1-.63 2.84-4.91-2.61-1.51-2.84 4.91-1.09-.63.58 4.53zm5.54 4.99l-3.62-2.77v1.27h-5.68v3.01h5.68v1.26l3.62-2.77zm1.53-7.3l-.59 4.52 1.1-.63 2.83 4.91 2.61-1.5-2.84-4.91 1.1-.63-4.21-1.76z"/><path class="cls-4" d="M421.4 422.58l-2.76-4.79-.26.45-1.48 2.57 1.85 3.21.31-2.41 2.34.97zm-9.72.25l-2.76 4.78h3.48l1.89-3.26-2.29.95-.32-2.47zm5.1 8.27h5.47l-1.74-3.01h-3.75l1.98 1.51-1.96 1.5z"/><path class="cls-5" d="M401.65 412.65h8.47v6.33h-8.47z"/><path class="cls-6" d="M402.59 414.13h.97v3.37h-.97zm4.47 0h.98v3.37h-.98zm-1.77 0h1.27v3.37h-1.27zm-.87 0h.49v3.37h-.49zm4.28 0h.48v3.37h-.48z"/><circle class="cls-1" cx="366.45" cy="454.26" r="10.22"/><circle class="cls-8" cx="366.46" cy="454.26" r="3.85"/><circle class="cls-1" cx="437.81" cy="457.98" r="6.5"/><path class="cls-6" d="M487.85 541.4v10.22h50.07a9.17 9.17 0 0 1 16.77 0h7.74V541.4z" transform="translate(-108.49 -97.36)"/><circle class="cls-8" cx="437.81" cy="457.98" r="2.45"/><path class="cls-1" d="M366.46 377.68h3.18v45.08h-3.18z"/><path class="cls-8" d="M363.27 377.68h3.18v45.08h-3.18z"/><path class="cls-7" d="M471.76 501.35v7h9.55v32a12.9 12.9 0 0 1 6.53 11.21h8.38v-50.21z" transform="translate(-108.49 -97.36)"/><path class="cls-6" d="M491.57 531.34a3.6 3.6 0 0 1-3.6 3.6h-19.2a3.6 3.6 0 0 1 0-7.21H488a3.6 3.6 0 0 1 3.57 3.61z" transform="translate(-108.49 -97.36)"/><path class="cls-8" d="M387.74 439.4h66.19v4.63h-66.19z"/><path class="cls-9" d="M97.55 148.27h33.27v86.57H97.55z"/><path class="cls-8" d="M64.28 234.84v-86.57h33.27v-6.2H58.08v98.97h39.47v-6.2H64.28z"/><path class="cls-1" d="M137.03 142.07H97.55v6.2h33.27v86.57H97.55v6.2h39.48v-98.97z"/><path class="cls-5" d="M64.28 148.27h33.27v86.57H64.28z"/><path class="cls-3" d="M97.55 148.27h33.27v86.57H97.55zm-18.4 27.75l-8.05-8.05 2.24-2.24 5.67 5.66 10.38-11.79 2.37 2.09-12.61 14.33z"/><path class="cls-8" d="M97.55 167.81h25.29v3.46H97.55z"/><path class="cls-3" d="M79.15 196.72l-8.05-8.05 2.24-2.24L79 192.1l10.39-11.8 2.37 2.09-12.61 14.33z"/><path class="cls-8" d="M97.55 188.51h25.29v3.46H97.55z"/><path class="cls-3" d="M79.15 217.43l-8.05-8.06 2.24-2.24L79 212.8 89.39 201l2.37 2.1-12.61 14.33z"/><path class="cls-8" d="M97.55 209.21h25.29v3.45H97.55z"/><path class="cls-7" transform="rotate(-40.01 48.373 408.514)" d="M234.47 283.42h3.74v49.55h-3.74z"/><path class="cls-2" transform="rotate(-40.1 67.5 430.458)" d="M253.23 326.12h3.74v8.7h-3.74z"/><path class="cls-6" d="M145.23 228.58l2.86-2.4-31.93-37.9-2.85 2.41 31.92 37.89z"/><path class="cls-4" transform="rotate(-40.08 70.21 428.075)" d="M256.09 323.72h3.73v8.7h-3.73z"/><path class="cls-2" d="M107.36 186.16l3.09 6.93 2.86-2.4-4.7-5.58-1.25 1.05z"/><path class="cls-4" d="M113.31 190.69l2.85-2.41-6.3-4.22-1.25 1.05 4.7 5.58z"/><path class="cls-8" d="M104.97 180.78l2.39 5.38 1.25-1.05-3.64-4.33z"/><path class="cls-1" d="M108.61 185.11l1.25-1.05-4.89-3.28 3.64 4.33z"/><path class="cls-7" d="M79.46 142.07h36.18v8.41H79.46z"/><path class="cls-6" d="M79.46 133.66h36.18v8.41H79.46z"/><path class="cls-8" d="M229.42 228.76l-91.51 46.25v10.93l91.51-46.25 91.52 46.25v-10.93l-91.52-46.25z"/><path class="cls-6" d="M369.29 228.76H229.42l91.52 46.25h139.87l-91.52-46.25z"/><path class="cls-1" d="M320.94 275.01h139.87v10.93H320.94z"/><path class="cls-3" d="M320.94 285.94l-91.52-46.25-91.51 46.25v37.93h183.03v-37.93z"/><path class="cls-8" d="M229.42 353.09h91.52v-29.22H137.91v29.22h91.51zm133.84-67.15h12.64v37.93h-12.64zm63.89 0h12.64v37.93h-12.64zm-21.3 0h12.64v37.93h-12.64zm-21.29 0h12.64v37.93h-12.64zm-42.6 0h12.64v37.93h-12.64zm106.49 0h12.37v37.93h-12.37zm-127.51 0h12.36v37.93h-12.36z"/><path class="cls-6" d="M405.85 323.87h12.64v29.22h-12.64zm21.3 0h12.64v29.22h-12.64zm-63.89 0v29.22h12.64v-29.22h-12.64zm-42.32 0h12.36v29.22h-12.36zm21.02 0h12.64v29.22h-12.64zm106.49 0h12.37v29.22h-12.37zm-63.89 0h12.64v29.22h-12.64z"/><path class="cls-3" d="M333.31 285.94h8.66v37.93h-8.66z"/><path class="cls-7" d="M333.31 323.87h8.66v29.22h-8.66z"/><path class="cls-3" d="M439.79 285.94h8.66v37.93h-8.66z"/><path class="cls-7" d="M439.79 323.87h8.66v29.22h-8.66z"/><path class="cls-3" d="M418.49 285.94h8.66v37.93h-8.66z"/><path class="cls-7" d="M418.49 323.87h8.66v29.22h-8.66z"/><path class="cls-3" d="M397.2 285.94h8.66v37.93h-8.66z"/><path class="cls-7" d="M397.2 323.87h8.66v29.22h-8.66z"/><path class="cls-3" d="M375.9 285.94h8.66v37.93h-8.66z"/><path class="cls-7" d="M375.9 323.87h8.66v29.22h-8.66z"/><path class="cls-3" d="M354.6 285.94h8.66v37.93h-8.66z"/><path class="cls-7" d="M354.6 323.87h8.66v29.22h-8.66z"/><path class="cls-8" d="M184.76 272.51h32.75v13.43h-32.75z"/><path class="cls-6" d="M241.34 272.51h32.75v13.43h-32.75z"/><path class="cls-7" d="M184.76 303.01h44.66v50.07h-44.66z"/><path class="cls-6" d="M229.42 303.01h44.66v50.07h-44.66z"/><path class="cls-7" d="M364.13 184.66l9.62-4.02-2.5-1.44 6.48-11.22-5.96-3.44-6.47 11.22-2.51-1.44 1.34 10.34zm12.65 11.41l-8.29-6.32v2.88h-12.95v6.89h12.95v2.88l8.29-6.33zm3.48-16.69l-1.33 10.35 2.5-1.45 6.47 11.22 5.97-3.44-6.48-11.22 2.5-1.44-9.63-4.02z"/><path class="cls-7" d="M384.68 180.03l-6.31-10.94-.59 1.03-3.38 5.86 4.24 7.33.71-5.51 5.33 2.23zm-22.19.57l-6.31 10.92h7.95l4.31-7.46-5.22 2.18-.73-5.64zm11.64 18.9h12.49l-3.97-6.88h-8.57l4.53 3.45-4.48 3.43zM209.6 176.44h9.34v22.4h-9.34zm-16.03 0h-9.36l-5.33-7.16h9.34l5.35 7.16zm16.03 0h9.34l5.35-7.16h-9.34l-5.35 7.16z"/><path class="cls-7" d="M292.7 273.8v22.4h23.74v-22.4zm14.16 6.7l2 3.42-1.67-.7-.22 1.72-1.33-2.29 1.06-1.83zm-4.09 2.08l2-3.51 1.87 1.08-2 3.51.78.45-3 1.25-.42-3.23zm-.65 3.28l1.63-.68-1.35 2.33h-2.49l2-3.42zm-7.4-9h6v4.52h-6zm5 13.18v-2.15h4V287l2.59 2-2.59 2v-1zm5.81 0l1.4-1.07-1.42-1.08h2.68l1.24 2.15zm4.31 0l-2-3.51-.84.47.42-3.23 3 1.26-.78.45 2 3.51z" transform="translate(-108.49 -97.36)"/><path class="cls-7" d="M186.9 180.53h.7v2.41h-.7zm3.2 0h.7v2.41h-.7zm-1.27 0h.91v2.41h-.91zm-.62 0h.35v2.41h-.35zm3.05 0h.35v2.41h-.35z"/><path class="cls-7" d="M225.92 178.41h-16.68v14.72h16.68zm-7.38 4.4l1.3 2.25-1.1-.46-.15 1.13-.87-1.51.69-1.2zm-2.69 1.37l1.33-2.3 1.22.71-1.33 2.31.51.3-2 .82-.27-2.12zm-.43 2.15l1.07-.45-.88 1.53H214l1.29-2.24zm-4.86-5.94h4v3h-4zm3.28 8.66v-1.41h2.66v-.59l1.7 1.3-1.7 1.3v-.59zm3.82 0l.92-.7-.93-.71h1.76l.82 1.41zm2.83 0l-1.33-2.31-.51.3.27-2.13 2 .82-.51.3 1.33 2.31z" transform="translate(-108.49 -97.36)"/><path class="cls-7" d="M118.8 81.05h6.14v14.72h-6.14zm-16.29 2.68h.46v1.58h-.46zm2.1 0h.46v1.58h-.46zm-.83 0h.6v1.58h-.6zm-.4 0h.23v1.58h-.23zm2 0h.23v1.58h-.23z"/><path class="cls-7" d="M234.75 193.09h16.68v-14.72h-16.68zm4.61-4.06v-1.42H242V187l1.7 1.3-1.7 1.3v-.6zm3.82 0l.92-.71-.93-.71h1.76l.82 1.42zm4.06-.71L246 189l-1.33-2.31-.51.3.27-2.12 2 .82-.52.3zm-3.18-5.54l1.3 2.25-1.1-.46-.15 1.13-.87-1.51.7-1.2zm-2.69 1.37l1.33-2.31 1.22.71-1.33 2.31.52.29-2 .83-.27-2.13zm-.43 2.15l1.07-.45-.88 1.53h-1.63l1.3-2.24zm-4.86-5.94h4v3h-4z" transform="translate(-108.49 -97.36)"/><path class="cls-7" d="M144.15 81.01h6.14v14.72h-6.14zm-16.12 2.69h.46v1.58h-.46zm2.1 0h.46v1.58h-.46zm-.83 0h.6v1.58h-.6zm-.41 0h.23v1.58h-.23zm2.01 0h.23v1.58h-.23z"/><path class="cls-7" d="M237.33 162.4h-16.68v14.72h16.68zm-7.33 4.4l1.3 2.25-1.1-.46-.15 1.13-.87-1.51.7-1.2zm-2.69 1.37l1.33-2.31 1.22.71-1.33 2.3.51.3-2 .83-.27-2.12zm-.43 2.15l1.07-.45-.88 1.53h-1.63l1.29-2.24zm-4.88-5.93h4v3h-4zm3.28 8.66v-1.41h2.66V171l1.7 1.3-1.7 1.3v-.59zm3.82 0l.92-.7-.93-.71h1.76l.82 1.42zm2.83 0l-1.33-2.3-.51.3.27-2.12 2 .82-.51.3 1.33 2.3z" transform="translate(-108.49 -97.36)"/><path class="cls-7" d="M130.2 65.04h6.14v14.72h-6.14zm-16.28 2.68h.46v1.58h-.46zm2.1 0h.45v1.58h-.45zm-.83 0h.6v1.58h-.6zm-.41 0h.23v1.58h-.23zm2.01 0h.23v1.58h-.23zM97.63 96.98v4.98h5.34v-3.34h7.05v3.34h5.35v-3.34h7.05v3.34h5.34v-3.34h7.06v3.34h5.34v-3.34h7.06v3.34h5.34v-4.98H97.63zM224.68.08l5.23-.08 11.24 20.79h-11.73L224.68.08z"/><path class="cls-7" d="M377.46 121.77c0 3-6.66 4.12-16.18 4.12h-30.16c-10.71 0-20.16-2.22-24.76-4.56h71a1.73 1.73 0 0 1 .1.44z" transform="translate(-108.49 -97.36)"/><path class="cls-7" d="M224.68 50.14l5.43.08 11.04-23.97h-12.18l-4.29 23.89z"/><path class="cls-7" d="M303.43 117.67v.1zm.12-.26a.94.94 0 0 0 0 .26L300.71 107H305l6.29 8c-3.69.26-7.74.51-7.74 2.41zm-.08.36l.05.12a.66.66 0 0 1-.05-.12z" transform="translate(-108.49 -97.36)"/><path class="cls-7" d="M375.36 117.91h-13.82a1.15 1.15 0 1 1 0-2.3l8.49.14a61.9 61.9 0 0 0-15.62-1.7H317.2c-.73 0-1.94 0-3.35.1-4.3.24-10.46 1-10.46 3.21a1.19 1.19 0 0 0 0 .3v.1l.05.12a6.17 6.17 0 0 0 2.84 2.29h71a4.3 4.3 0 0 0-1.92-2.26z" transform="translate(-108.49 -97.36)"/><path class="cls-7" d="M192.48 27.73l4.7.07 6.87-7.49h-9.11l-2.46 7.42zm-72.43 411.49h6.64v15.92h-6.64z"/><path class="cls-7" d="M227.38 536.58h-18v15.92h18zm-8 4.77l1.4 2.43-1.19-.5-.16 1.22-.94-1.63.75-1.3zm-2.91 1.48l1.44-2.49 1.33.76-1.44 2.49.56.32-2.14.89-.3-2.3zm-.46 2.33l1.16-.49-1 1.66h-1.77l1.4-2.43zm-5.26-6.42h4.3v3.21h-4.3zm3.55 9.37v-1.53h2.88v-.64l1.84 1.41-1.84 1.41v-.64zm4.13 0l1-.76-1-.77h1.9l.88 1.53zm3.06 0l-1.44-2.5-.56.32.3-2.3 2.14.89-.56.32 1.44 2.5z" transform="translate(-108.49 -97.36)"/><path class="cls-7" d="M102.75 442.13h.49v1.71h-.49zm2.27 0h.49v1.71h-.49zm-.9 0h.65v1.71h-.65zm-.44 0h.25v1.71h-.25zm2.17 0h.25v1.71h-.25z"/><path class="cls-7" d="M194.06 555.78a5.19 5.19 0 1 0 5.19 5.19 5.19 5.19 0 0 0-5.19-5.19zm0 7.15a2 2 0 1 1 2-2 2 2 0 0 1-2 2zm36.23-3.37a3.3 3.3 0 1 0 3.3 3.3 3.3 3.3 0 0 0-3.3-3.3zm0 4.55a1.25 1.25 0 1 1 1.24-1.25 1.25 1.25 0 0 1-1.24 1.25z" transform="translate(-108.49 -97.36)"/><path class="cls-7" d="M204.87 553.42v-18h-9.19v-13.34h-11.24v2.55h8v24.21h-1.52a1.83 1.83 0 0 0 0 3.66h1.52v2.07a6.36 6.36 0 0 1 3.23 0v-2.07h1.62v2.78a6.55 6.55 0 0 1 3.32 5.69H226a4.66 4.66 0 0 1 8.52 0h3.93v-7.55zm-9.19-4.58V539h1.62v9.83z" transform="translate(-108.49 -97.36)"/><path class="cls-7" d="M565.02 360.59h5.17v12.39h-5.17z"/><path class="cls-7" d="M658.49 457.95v12.39h14v-12.39zm7.83 3.71l1.09 1.89-.92-.38-.12 1-.73-1.27.58-1zm-2.26 1.15l1.12-1.94 1 .6-1.12 1.94.43.25-1.66.7-.23-1.79zm-.49.84l.13 1 .9-.38-.74 1.29h-1.37zm-1.2 3.27v-1.19h2.24v-.5l1.43 1.09-1.43 1.1v-.5zm3.22 0l.78-.59-.78-.6h1.48l.69 1.19zm2.38 0l-1.12-1.92-.44.25.23-1.79 1.66.69-.43.25 1.12 1.94z" transform="translate(-108.49 -97.36)"/><path class="cls-7" d="M572.15 378.95h5.17v12.39h-5.17z"/><path class="cls-7" d="M665.62 476.31v12.39h14v-12.39zm7.83 3.71l1.09 1.89-.92-.38-.12 1-.73-1.27.59-1zm-2.26 1.16l1.12-1.94 1 .59-1.12 1.94.44.25-1.67.69-.23-1.79zm-.49.83l.13 1 .9-.38-.73 1.27h-1.38zm-1.2 3.27v-1.19h2.24v-.5l1.43 1.1-1.43 1.09v-.5zm3.22 0l.78-.59-.78-.6h1.48l.68 1.19zm2.38 0l-1.1-1.94-.43.25.23-1.79 1.67.69-.43.25 1.12 1.94z" transform="translate(-108.49 -97.36)"/><path class="cls-7" d="M690.73 451.86h-41.54v46.24H651v-7.63h8.81v7.63h1.76v-7.63h29.21v7.63h1.76v-46.24zM651 453.62h8.81v16.66H651zm0 35.09V472h8.81v16.7zm39.78 0h-29.26V472h29.21zm0-18.42h-29.26v-16.67h29.21zm-531.91-81.48c-.2-.48-.43-1-.66-1.42q-.78 1.09-1.59 2.15a22.92 22.92 0 0 1 2 8.44h-9.17l-1.6 1.81-.88 1-.88-1-1.64-1.79h-8.69v-6c1.12 0 2.25-.05 3.38-.1-.57-.69-1.14-1.39-1.7-2.1h-1.68v-2.26q-1.1-1.51-2.1-3.09v5.35c-2.94 0-5.9-.2-8.81-.51a30.7 30.7 0 0 1 1.18-3 32.1 32.1 0 0 1 1.63-3.11 26.14 26.14 0 0 0 5.78.93q-.73-1.2-1.39-2.44a23.88 23.88 0 0 1-3-.53q.8-1.13 1.72-2.19c-.3-.69-.58-1.39-.83-2.1a32.44 32.44 0 0 0-2.94 3.69 23.75 23.75 0 0 1-4.5-2.09 23.52 23.52 0 0 1 7-2.79c-.23-.74-.43-1.48-.6-2.24a26.24 26.24 0 0 0-8.63 3.68c-.57.37-1.15.79-1.73 1.25a26.63 26.63 0 0 0-7.15 8.65c-.31.6-.59 1.2-.83 1.78a26.16 26.16 0 0 0-2 9.3v1.82a26.14 26.14 0 0 0 2 9.3c.24.58.53 1.18.83 1.78a26.46 26.46 0 0 0 7.15 8.65c.57.45 1.16.87 1.73 1.25a26.17 26.17 0 0 0 11.81 4.19c.78.08 1.58.13 2.38.13h.54c.79 0 1.59-.05 2.38-.13a26.22 26.22 0 0 0 11.81-4.19c.57-.38 1.15-.8 1.73-1.25A26.54 26.54 0 0 0 158 411c.3-.58.58-1.18.83-1.78a26 26 0 0 0 2-9.3v-1.82a26 26 0 0 0-1.96-9.29zm-38.51-8.91a26.47 26.47 0 0 0 5.34 2.69 32.81 32.81 0 0 0-2.86 6.51c-3.05-.39-6.1-.93-9.07-1.6a24.16 24.16 0 0 1 6.59-7.6zm-7.58 9.62c3.1.72 6.29 1.29 9.47 1.7a33.27 33.27 0 0 0-.91 6.66c0 .09-10.51.09-10.51.09a23.69 23.69 0 0 1 1.94-8.45zm-1.94 10.55h10.51a33.31 33.31 0 0 0 .91 6.75c-3.2.41-6.39 1-9.47 1.7a23.67 23.67 0 0 1-1.95-8.46zm2.93 10.48c3-.68 6-1.22 9.07-1.61a32.63 32.63 0 0 0 2.86 6.51 26.23 26.23 0 0 0-5.34 2.68 24.22 24.22 0 0 1-6.59-7.59zm8.69 9a24.17 24.17 0 0 1 4.5-2.09 32.68 32.68 0 0 0 4.44 5.23 23.62 23.62 0 0 1-8.93-3.14zm11.2 2.47c-.36-.32-.69-.62-1-.92a31.06 31.06 0 0 1-3.65-4.24 24.05 24.05 0 0 1 4.66-.67zm0-8.14a25.76 25.76 0 0 0-6 .94 31.08 31.08 0 0 1-1.63-3.1 30.22 30.22 0 0 1-1.18-3c2.92-.3 5.88-.47 8.81-.51zm0-7.86c-3.15 0-6.32.22-9.43.56a31.11 31.11 0 0 1-.92-6.41v-.11h10.35zm0-8.05h-10.34v-.11a31.1 31.1 0 0 1 .92-6.41c3.13.34 6.3.52 9.43.56zm2.1 2.1h10.35v.11a30.7 30.7 0 0 1-.91 6.41c-3.12-.34-6.29-.52-9.43-.56zm0 8.13c2.93 0 5.9.2 8.81.51a31.27 31.27 0 0 1-1.18 3 30.83 30.83 0 0 1-1.63 3.1 25.8 25.8 0 0 0-6-.94zm1 12.91c-.31.3-.64.61-1 .92v-5.83a24.07 24.07 0 0 1 4.66.67 31.34 31.34 0 0 1-3.66 4.23zm1.26 1.59a32.63 32.63 0 0 0 4.44-5.23 24 24 0 0 1 4.5 2.09 23.65 23.65 0 0 1-8.96 3.13zm11-4.56a25.9 25.9 0 0 0-5.34-2.68 32.68 32.68 0 0 0 2.86-6.51c3.05.39 6.1.93 9.07 1.61a24.25 24.25 0 0 1-6.54 7.57zm7.59-9.62a95.33 95.33 0 0 0-9.48-1.7 32.94 32.94 0 0 0 .91-6.66v-.09h10.51a23.75 23.75 0 0 1-1.89 8.44zm-16.41-32.77a23.6 23.6 0 0 1 6.09 2.36h.65a10.74 10.74 0 0 0 3-.44c-.28-.2-.55-.39-.82-.57a26.26 26.26 0 0 0-11.34-4.1 10.7 10.7 0 0 0 2.42 2.75z" transform="translate(-108.49 -97.36)"/><path class="cls-7" d="M132.51 377.1c.35.88.74 1.75 1.16 2.6a43.09 43.09 0 0 0 2.57 4.43 66.93 66.93 0 0 0 4.12 5.55q.85 1 1.72 2.05c1.22 1.42 2.43 2.78 3.6 4.08l.33.37.93 1 1-1.16.17-.2c1.58-1.76 3.24-3.63 4.87-5.59.72-.87 1.44-1.76 2.13-2.68l.32-.43c.5-.67 1-1.35 1.47-2 3.6-5.2 6.33-11 6.33-17.47 0-9.62-6.72-16.33-16.33-16.33s-16.3 6.68-16.3 16.35a23.83 23.83 0 0 0 .63 5.38 28.13 28.13 0 0 0 1.28 4.05zm14.43-22.8a13.1 13.1 0 0 1 5.19 25.12 12.9 12.9 0 0 1-2.64.82c-.42.08-.84.14-1.27.19s-.85.06-1.28.06a13.05 13.05 0 0 1-5.37-1.15 13.2 13.2 0 0 1-6.57-6.54 13.09 13.09 0 0 1 11.92-18.5z" transform="translate(-108.49 -97.36)"/><path class="cls-7" d="M503.65 80.68l-22.09-11.16h-33.77l22.1 11.16h33.76zm-66.64-.6h7.91v3.24h-7.91zm13.66 0h7.91v3.24h-7.91zm9.79 19.45h9.43v-7.06h-9.43v7.06zm19.64-16.21h3.05v9.15h-3.05zm15.42 0h3.05v9.15h-3.05zm-5.14 0h3.05v9.15h-3.05zm-5.14 0h3.05v9.15h-3.05zm-10.28 0h3.05v9.15h-3.05zm25.7 0h2.98v9.15h-2.98zm-30.77 0h2.99v9.15h-2.99zm2.98 9.15h2.09v7.06h-2.09zm25.7 0h2.09v7.06h-2.09zm-5.14 0h2.09v7.06h-2.09zm-5.14 0h2.09v7.06h-2.09zm-5.14 0h2.09v7.06h-2.09zm-5.14 0h2.09v7.06h-2.09zm-41 0v7.06h9.8V87.44h-9.8v5.03zm11.68 0v7.06h9.89V87.44h-9.89v5.03z"/><path class="cls-7" d="M425.7 83.32v16.21h9.43v-7.06h-7.09V82.14l19.75-9.98v-2.64L425.7 80.68v2.64zM566.58 306.6l-18.09-21.47-3.56-2.39-2.78-1.85 1.36 3.04 1.75 3.93 18.08 21.46 3.17 3.77 1.62-1.36 1.62-1.36-3.17-3.77z"/><path class="cls-7" d="M556.8 311.5h-37.69v-49.03h8.6v1.25l20.49.01v-1.26h8.6v29.4l3.51 4.18v-37.09H548.2v-4.76h-20.49v4.76H515.6v56.05h44.71v-6.17l-3.51-4.16v6.82z"/><path class="cls-7" d="M534.67 270.07l-1.34-1.18-5.88 6.68-3.21-3.21-1.27 1.27 4.56 4.56 7.14-8.12zm3.29 3.47h14.33v1.96h-14.33zm-4.63 7.07l-5.88 6.69-3.21-3.21-1.27 1.26 4.56 4.56 7.15-8.11-1.35-1.19zm4.63 4.65v1.96h4.82l-.87-1.96h-3.95zm-13.72 10.55l-1.27 1.27 4.56 4.56 7.14-8.12-1.34-1.18-5.88 6.68-3.21-3.21zm27.73 3.13l-1.64-1.95h-12.37v1.96l14.01-.01z"/><path class="cls-7" d="M604.33 563.29a5.82 5.82 0 1 0 5.82 5.82 5.82 5.82 0 0 0-5.82-5.82zm0 9.67a3.86 3.86 0 1 1 3.86-3.85 3.86 3.86 0 0 1-3.86 3.89z" transform="translate(-108.49 -97.36)"/><circle class="cls-7" cx="495.84" cy="471.75" r="1.57"/><circle class="cls-7" cx="522.21" cy="471.75" r="1.57"/><path class="cls-7" d="M639.2 566.95v-36.1H633v8.22h-3.79v1.49H633v16.2h-6.84l-5-16.2h-22.6v13.81h-2.46v9.93h1.9l-.55 1.57h-1.35v3.24h1.56l2.28-6.47h9.26l2.28 6.47H624l2.28-6.47h9.21l2.23 6.34h15.68v-2zm-25.61-14.46v-9.71H619l.47 1.68.46 1.65.33 1.18.8 2.83.93 3.33h-8.43zm-12.38-2.74v-7h3.13v10.68h-3.13zm7.06 7v3h-7.86v-4.56h7.86zm-2-3.31v-10.66h6.29v10.68h-6.29zm17.58 12.42H611.7l-.56-1.6h13.27z" transform="translate(-108.49 -97.36)"/><path class="cls-7" d="M636.51 569a5.81 5.81 0 0 0-3.51-5.21 5.64 5.64 0 0 0-1.65-.44 5.82 5.82 0 1 0 5.16 5.78s.01-.13 0-.13zm-2 .91a3.88 3.88 0 1 1-3.2-4.58h.1a3.57 3.57 0 0 1 .55.14 3.9 3.9 0 0 1 .56.24l.11.07.36.23.11.09a3.84 3.84 0 0 1 .41.37l.1.1a4.38 4.38 0 0 1 .4.53v.09a3.54 3.54 0 0 1 .25.51l.07.17a4.19 4.19 0 0 1 .17.65 4 4 0 0 1 .05.6 3.73 3.73 0 0 1-.07.77z" transform="translate(-108.49 -97.36)"/><path class="cls-7" d="M368.44 10.81h-27.77v4.82h27.77v-4.82z"/><path class="cls-7" d="M467.42 122.51h9.51V114h-27.76v2.33h15.18zm5.75-6.67a1.44 1.44 0 1 1-1.44 1.44 1.44 1.44 0 0 1 1.43-1.43zm-4.4 0a1.44 1.44 0 1 1-1.44 1.44 1.44 1.44 0 0 1 1.43-1.43z" transform="translate(-108.49 -97.36)"/><path class="cls-7" d="M510.73 123.57h-44.09l-3.07-6.13h-28.32l5.33 6.13 5.06 5.4h71.74a12.52 12.52 0 0 0 1.23-5.4z" transform="translate(-108.49 -97.36)"/><path class="cls-7" d="M348.64 5.52v4.23h11.83V5.52h-11.83z"/><path class="cls-7" d="M509.22 117.44h-5.61v-6.13h-14.23v6.13h-5.61v6.13h1.51v-4.7H488v4.7h1.51v-4.7h2.73v4.7h1.51v-4.7h2.73v4.7H498v-4.7h2.73v4.7h1.51v-4.7H505v4.7h1.51v-4.7h2.73v4.7h1.51v-6.13zm-18.33 0v-4.7h2.73v4.7h-2.73zm4.24 0v-4.7h2.73v4.7h-2.73zm4.24 0v-4.7h2.73v4.7h-2.73zm-52.82 12.51l5.79 6.18h53.72a12.53 12.53 0 0 0 10.8-6.18z" transform="translate(-108.49 -97.36)"/><path class="cls-2" d="M60.21 336.68h41.87v36.93H60.21z"/><path class="cls-4" d="M102.07 336.68h15.4v36.93h-15.4zm-25.86 19.08l4.96-2.07-1.29-.74 3.34-5.79-3.07-1.77-3.34 5.78-1.29-.74.69 5.33zm6.52 5.89l-4.27-3.27v1.49h-6.68v3.55h6.68v1.49l4.27-3.26zm1.8-8.61l-.69 5.33 1.29-.74 3.34 5.78 3.07-1.77-3.34-5.79 1.29-.74-4.96-2.07z"/><path class="cls-4" d="M86.81 353.37l-3.26-5.63-.3.52-1.75 3.03 2.19 3.78.36-2.85 2.76 1.15zm-11.45.3l-3.25 5.63h4.1l2.22-3.85-2.69 1.13-.38-2.91zm6 9.74h6.45l-2.06-3.55-4.41.01 2.34 1.78-2.32 1.76z"/><path class="cls-5" d="M63.54 341.68h9.98v7.45h-9.98z"/><path class="cls-6" d="M64.65 343.42h1.14v3.98h-1.14zm5.27 0h1.15v3.98h-1.15zm-2.1 0h1.51v3.98h-1.51zm-1.01 0h.57v3.98h-.57zm5.03 0h.57v3.98h-.57z"/><path class="cls-2" d="M117.47 336.6h41.87v36.93h-41.87z"/><path class="cls-4" d="M159.34 336.6h15.4v36.93h-15.4zm-25.87 19.08l4.97-2.07-1.29-.75 3.34-5.78-3.08-1.77-3.34 5.78-1.28-.74.68 5.33zm6.53 5.89l-4.28-3.27v1.49h-6.68v3.55h6.68v1.49l4.28-3.26zm1.79-8.61l-.68 5.33 1.28-.74 3.34 5.78 3.08-1.77-3.34-5.79 1.29-.74-4.97-2.07z"/><path class="cls-4" d="M144.07 353.29l-3.25-5.63-.31.52-1.74 3.02 2.18 3.79.37-2.85 2.75 1.15zm-11.44.3l-3.25 5.63h4.09l2.23-3.85-2.7 1.13-.37-2.91zm6 9.74h6.44l-2.05-3.55h-4.41l2.33 1.79-2.31 1.76z"/><path class="cls-5" d="M120.8 341.6h9.98v7.45h-9.98z"/><path class="cls-6" d="M121.91 343.34h1.15v3.97h-1.15zm5.27 0h1.15v3.97h-1.15zm-2.09 0h1.5v3.97h-1.5zm-1.01 0h.57v3.97h-.57zm5.02 0h.57v3.97h-.57z"/><path class="cls-2" d="M88.84 299.67h41.86v36.93H88.84z"/><path class="cls-4" d="M130.7 299.67h15.4v36.93h-15.4zm-25.86 19.08l4.97-2.07-1.29-.75 3.33-5.78-3.07-1.77-3.34 5.78-1.29-.74.69 5.33zm6.52 5.88l-4.27-3.26v1.49h-6.68v3.55h6.68v1.49l4.27-3.27zm1.8-8.6l-.69 5.33 1.29-.74 3.34 5.78 3.07-1.77-3.34-5.79 1.29-.74-4.96-2.07z"/><path class="cls-4" d="M115.44 316.36l-3.25-5.64-.31.53-1.75 3.02 2.19 3.79.37-2.85 2.75 1.15zm-11.45.3l-3.25 5.63h4.1l2.22-3.85-2.69 1.12-.38-2.9zm6.01 9.74h6.44l-2.05-3.55h-4.42l2.34 1.78-2.31 1.77z"/><path class="cls-5" d="M92.17 304.67h9.97v7.45h-9.97z"/><path class="cls-6" d="M93.28 306.41h1.14v3.98h-1.14zm5.27 0h1.15v3.98h-1.15zm-2.09 0h1.5v3.98h-1.5zm-1.02 0h.58v3.98h-.58zm5.03 0h.57v3.98h-.57z"/><path class="cls-10" d="M52.38 373.61h137.86v4.14H52.38z"/><path class="cls-4" d="M52.38 377.75h13.41v8.37H52.38zm31.11 0H96.9v8.37H83.49zm31.11 0h13.41v8.37H114.6zm31.11 0h13.41v8.37h-13.41zm31.12 0h13.41v8.37h-13.41z"/><path class="cls-2" d="M414.08 348.58h63.72v56.21h-63.72z"/><path class="cls-4" d="M477.8 348.58h23.44v56.21H477.8zm-40.21 0h-23.51l-13.35-17.98h23.43l13.43 17.98z"/><path class="cls-2" d="M477.81 348.58h23.44l13.42-17.98h-23.44l-13.42 17.98z"/><path class="cls-4" d="M438.44 377.62l7.55-3.15-1.96-1.14 5.08-8.8-4.67-2.7-5.09 8.8-1.96-1.13 1.05 8.12zm9.93 8.96l-6.5-4.97v2.27H431.7v5.4h10.17v2.26l6.5-4.96zm2.73-13.1l-1.05 8.12 1.96-1.14 5.08 8.81 4.68-2.71-5.08-8.8 1.96-1.13-7.55-3.15z"/><path class="cls-4" d="M454.57 373.98l-4.95-8.58-.47.8-2.65 4.61 3.32 5.75.56-4.32 4.19 1.74zm-17.42.46L432.2 383h6.24l3.38-5.85-4.1 1.71-.57-4.42zm9.14 14.83h9.8l-3.12-5.41h-6.72l3.56 2.72-3.52 2.69z"/><path class="cls-5" d="M419.16 356.19h15.18v11.34h-15.18z"/><path class="cls-6" d="M420.84 358.84h1.75v6.05h-1.75zm8.02 0h1.75v6.05h-1.75zm-3.18 0h2.29v6.05h-2.29zm-1.55 0h.87v6.05h-.87zm7.66 0h.87v6.05h-.87z"/><path class="cls-1" d="M143.44 432.7v2.1h6.38v6.46h1.88v-6.46h19.78l1.27-2.1h-29.31zm158.37 0h-16.64l1.26 2.1h15.38v-2.1z"/><path class="cls-6" d="M251.27 375.78h3.09v56.92h-3.09z"/><path class="cls-7" d="M143.44 370.27H247.6v38.39H143.44z"/><path class="cls-2" d="M301.81 408.33l-15.05-23.7h-32.4v24.03h47.45v-.33z"/><path class="cls-6" d="M143.44 408.66H247.6v24.04H143.44zm114.69-19.19v10.84l10.85-10.84h-10.85zm15.8 0l-15.8 15.79v.23h3.31l16.03-16.02h-3.54zm11.03 1l-15.02 15.02h7.69l10.32-10.32-2.99-4.7zm4.91 7.74l-7.28 7.28h3.54l5.12-5.12-1.38-2.16z"/><path class="cls-7" d="M268.98 389.47l-10.85 10.84v4.95l15.8-15.79h-4.95zm15.34 0h-6.85l-16.03 16.02h8.5l15.02-15.02-.64-1zm3.63 5.7l-10.32 10.32h4.96l7.28-7.28-1.92-3.04zm3.3 5.2l-5.12 5.12h8.37l-3.25-5.12z"/><path class="cls-4" d="M254.36 408.66h47.45v13.69h-47.45zm0 18.87h47.45v5.17h-47.45z"/><path class="cls-2" d="M254.36 422.35h47.45v5.18h-47.45zm3.77-10.18h12.53v6.13h-12.53z"/><path class="cls-1" d="M260.64 413.7h7.51v3.07h-7.51zm41.17 6.15h2.71v10.18h-2.71z"/><path class="cls-4" d="M301.81 434.19h1.75v5.09h-1.75z"/><path class="cls-1" d="M267.46 432.7H143.44v2.1h158.37v-2.1h-34.35zm-109.67 2.1h144.02v5.72H157.79z"/><path class="cls-3" d="M189.78 431.93H173.4l-3.53 5.83-1.67 2.76h26.77l-1.66-2.76-3.53-5.83z"/><circle class="cls-1" cx="181.59" cy="446.14" r="12.45"/><circle class="cls-3" cx="181.59" cy="446.14" r="6.63"/><ellipse class="cls-5" cx="181.59" cy="446.14" rx="2.28" ry="2.28"/><path class="cls-1" d="M196.03 438.64l-.54-.88-2.03-3.37-1.49-2.46-1.2-1.9h-18.49l-1.07 1.9-1.49 2.46-2.03 3.37-.53.88-3.2 5.28 1.6.96 3.78-6.24.53-.88 2.04-3.37 1.49-2.46h16.38l1.49 2.46 2.04 3.37.53.88 3.78 6.24 1.6-.96-3.19-5.28z"/><path class="cls-3" d="M285.67 431.93h-16.39l-3.53 5.83-1.67 2.76h26.78l-1.67-2.76-3.52-5.83z"/><circle class="cls-1" cx="277.47" cy="446.14" r="12.45"/><circle class="cls-3" cx="277.47" cy="446.14" r="6.63"/><circle class="cls-5" cx="277.47" cy="446.14" r="2.28"/><path class="cls-1" d="M291.9 438.64l-.53-.88-2.03-3.37-1.49-2.46-1.2-1.9h-18.49l-1.07 1.9-1.49 2.46-2.03 3.37-.53.88-3.2 5.28 1.6.96 3.78-6.24.53-.88 2.04-3.37 1.49-2.46h16.39l1.48 2.46 2.04 3.37.53.88 3.78 6.24 1.6-.96-3.2-5.28z"/></svg>