<svg xmlns="http://www.w3.org/2000/svg" viewBox="0 0 800 800"><style>.st0{fill:#fff}.st1{fill:#59caea}.st2{fill:#01aab5}.st3{fill:#f37326}.st4{fill:#f37029}.st5{fill:#b02c9f}.st6{fill:#f8931d}.st7{fill:#f7991e}.st8{fill:#068ca9}.st9{fill:#da3420}.st10{fill:#01b7d4}.st11{fill:#a360b9}.st12{fill:#00a7b0}.st13{fill:#d61e41}.st14{fill:#c2349b}.st15{fill:#ef4136}.st16{fill:#f36f26}.st17{fill:#d60eb1}.st18{fill:#fcb315}.st19{fill:#00a8cb}.st20{fill:#08acb7}.st21{fill:#008a9f}.st22{fill:#ffc20e}.st23{fill:#2f7888}.st24{fill:#fd9f13}.st25{fill:#8e1d83}.st26{fill:#8c1670}.st27{fill:#b911d1}.st28{fill:#38c5ed}.st29{fill:#039bb1}.st30{fill:#b7059a}.st31{fill:#f5821f}.st32{fill:#faa21c}.st33{fill:#f9a01c}.st34{fill:#8e002f}.st35{fill:#ee1b39}.st36{fill:#f89b1d}.st37{fill:#ef474a}.st38{fill:#f58120}.st39{fill:#a20994}.st40{fill:#db3bbf}.st41{fill:#cf2bad}.st42{fill:#771f80}.st43{fill:#e26ec2}.st44{fill:#04769f}.st45{fill:#0181b5}.st46{fill:#911a92}.st47{fill:#ca50b4}.st48{fill:#920479}.st49{fill:#b92e96}.st50{fill:#ed4456}.st51{fill:#d61e42}.st52{fill:#ee1c36}.st53{fill:#ee1748}.st54{fill:#ee5a2f}.st55{fill:#e91b3b}.st56{fill:#c40f3f}.st57{fill:#058ea4}.st58{fill:#d950b5}.st59{fill:#6c0570}.st60{fill:#43075e}.st61{fill:#ed1a43}</style><path class="st0" d="M0 0h800v800H0z" id="Background"/><g id="Object"><path class="st1" d="M590.5 498l44.3 169 36-224z"/><path class="st2" d="M492.8 565l142 102-44.3-169z"/><path class="st3" d="M381.4 530.1L306.8 577l186-12z"/><path class="st4" d="M320.7 661.6l8.1 49.4 306-44-142-102z"/><path class="st5" d="M718.3 370.1l-13.8 21.2 28.4-18.5z"/><path class="st4" d="M232.8 711h96l-8.1-49.4z"/><path class="st6" d="M492.8 565l-186 12 13.9 84.6z"/><path class="st7" d="M306.8 577l-90.4 117.7 16.4 16.3 87.9-49.4z"/><path class="st8" d="M723 579.1l-14.4-145.9-37.8 9.8z"/><path class="st9" d="M332.8 514.8l-26 62.2 74.6-46.9z"/><path class="st5" d="M704.5 391.3l95.5-6-67.1-12.5z"/><path class="st10" d="M723 579.1L634.8 667l131.9 25.9L723 579.1z"/><path class="st11" d="M670.8 443l37.8-9.8-4.1-41.9z"/><path class="st12" d="M634.8 667l88.2-87.9L670.8 443z"/><path class="st14" d="M800 385.3l-23.8-40.6-43.3 28.1z"/><path class="st15" d="M149.8 516.9l-41 70.1 198-10z"/><path class="st6" d="M515.1 760.5L634.8 667l-306 44z"/><path class="st16" d="M222.8 791.4c52.8-39.8 106-80.4 106-80.4h-96l-10 80.4z"/><path class="st17" d="M799.1 246.1l-58.3 38.3 15.8 26.9z"/><path class="st18" d="M108.8 587l107.6 107.7L306.8 577z"/><path class="st19" d="M590.5 498l80.3-55-102.7-30.3z"/><path class="st20" d="M670.8 443l33.7-51.7-139.7 8.7 3.3 12.7z"/><path class="st21" d="M718.3 370.1l-84.1-15.7-69.4 45.6 139.7-8.7z"/><path class="st7" d="M381.4 530.1L492.8 565l-26.7-88.2z"/><path class="st22" d="M634.8 667l-119.7 93.5L663.8 800h95.1z"/><path class="st23" d="M723 579.1l77 34.9V502.4l-77 76.7z"/><path class="st19" d="M723 579.1l77-76.7v-92.7l-91.4 23.5z"/><path class="st24" d="M634.8 667l124.1 133H800v-20.2l-33.3-86.9z"/><path class="st1" d="M800 779.8v-80.3l-33.3-6.6z"/><path class="st20" d="M766.7 692.9l33.3 6.6V614l-77-34.9z"/><path class="st25" d="M800 385.3v-56.1l-23.8 15.5z"/><path class="st26" d="M756.6 311.3l19.6 33.4 23.8-15.5v-83.7l-.9.6z"/><path class="st13" d="M799.1 246.1l.9-.6v-.8z"/><path class="st14" d="M740.8 284.4l58.3-38.3.9-1.4V229l-81.2 18z"/><path class="st27" d="M718.3 370.1l38.3-58.8-15.8-26.9-106.6 70z"/><path class="st28" d="M313.7 391.3L300 348.9l-37.3 32.2zm232.5-70.8l1.2-25.2-26.2 9.6zm-122-8.3l-12.5 15.2 21.9 12.2zM84.7 238.4l-17.6-8.9-7 24.1zm117.1-130.3L181 99l-2.2 26.2z"/><path class="st29" d="M331.4 379.2l-2.8-16.1-7.7 12.2z"/><path class="st30" d="M732.9 372.8l43.3-28.1-19.6-33.4-38.3 58.8z"/><path class="st31" d="M222.8 791.4l-1.1 8.6h118l-11-89c.1 0-53 40.6-105.9 80.4zm241.8 8.6h199.2l-148.7-39.5z"/><path class="st32" d="M232.8 711l-16.3-16.3-81 105.3h75.9c3.8-2.8 7.6-5.7 11.4-8.6l10-80.4z"/><path class="st31" d="M211.4 800h10.3l1.1-8.6c-3.8 2.9-7.6 5.8-11.4 8.6z"/><path class="st33" d="M328.8 711l11 89h124.8l50.5-39.5z"/><path class="st34" d="M0 459.5v132.2l122.3-85.4z"/><path class="st35" d="M149.8 516.9l-27.5-10.6L0 591.7v116.1L108.8 587z"/><path class="st36" d="M216.4 694.7L108.8 587l26.7 213z"/><path class="st37" d="M108.8 587L0 707.8V800z"/><path class="st38" d="M135.5 800l-26.7-213L0 800z"/><path class="st39" d="M768 114.2L800 96V0l-54.5 95.5z"/><path class="st40" d="M700.6 58.2L690.8 97l28 45.2 26.7-46.7z"/><path class="st41" d="M768 114.2l-22.5-18.7-26.7 46.7z"/><path class="st42" d="M715.3 0h-84.7l70 58.2z"/><path class="st43" d="M718.8 142.2l-28-45.2-20 45.5 48-.3z"/><path class="st39" d="M628.7 45.6l-83.8 3.1 65.9 67.3z"/><path class="st17" d="M695.4 197.3l8 14.8 21-16.5z"/><path class="st44" d="M616.1 170.1l8.1 14.8 10-13.9z"/><path class="st45" d="M545.7 227.9l-88.9 30.6 81.3 8.6z"/><path class="st46" d="M800 174l-81.2 73 81.2-18z"/><path class="st47" d="M718.8 142.2l35.5 26.2 45.7-10.1V154z"/><path class="st48" d="M800 140.8V96l-32 18.2z"/><path class="st39" d="M718.8 142.2L800 154v-13.2l-32-26.6z"/><path class="st49" d="M740.8 284.4l-22-37.4-84.6 107.4z"/><path class="st50" d="M77.1 378.3l102.1 88.3 21.4-107z"/><path class="st15" d="M211.6 326.1l-62.9-53.6 2.2 56.1zm40.3-.2l16.5 9.6 5.4-15.4z"/><path class="st17" d="M640 328.4l-28-41-7.5 32.9z"/><path class="st28" d="M477.1 65.8L447 42l-11.3 40.8zm-52.6 60.6l4 15.4 18.4-8.6z"/><path class="st45" d="M425.8 51.1l-34.3 25.7 36.4-7.6z"/><path class="st17" d="M498.2.9L458.1 0l18 20.4z"/><path class="st51" d="M200.6 359.6l-21.4 107 85.9-55.2z"/><path class="st51" d="M122.3 506.3l27.5 10.6 29.4-50.3z"/><path class="st52" d="M149.8 516.9l157 60.1-127.6-110.4z"/><path class="st53" d="M77.1 378.3L60.5 364 5.6 412.2l173.6 54.4-102.1-88.3z"/><path class="st51" d="M60.5 364L0 311.6v98.8l5.6 1.8z"/><path class="st54" d="M306.8 577l26-62.2-153.6-48.2z"/><path class="st51" d="M0 410.4v6.7l5.6-4.9z"/><path class="st55" d="M5.6 412.2L0 417.1v42.4l122.3 46.8 56.9-39.7z"/><path class="st51" d="M104.6 303.6l-55 1.7 16.5 14.3zm-27.5 74.7L60.5 364l16.6 14.3z"/><path class="st56" d="M60.5 364L0 311.6 60.5 364z"/><path class="st19" d="M564.8 400l-130.4-27.8 31.7 104.6 102-64.1z"/><path class="st29" d="M367.6 424.5l-34.8 90.3 101.6-142.6z"/><path class="st10" d="M564.8 400l69.4-45.6-199.8 17.8z"/><path class="st28" d="M434.4 372.2l199.8-17.8L511 331.5z"/><path class="st57" d="M492.8 565l97.7-67-124.4-21.2z"/><path class="st10" d="M466.1 476.8L590.5 498l-22.4-85.3z"/><path class="st5" d="M800 409.7v-24.4l-91.4 47.9z"/><path class="st58" d="M704.5 391.3l4.1 41.9 91.4-47.9-95.5 6z"/><path class="st59" d="M745.5 95.5L800 0l-97.4 59.8z"/><path class="st60" d="M700.6 58.2l2 1.6L800 0h-84.7z"/><path class="st15" d="M101.5 143.6h72.6v99.9z"/><path class="st18" d="M101.5 143.6l-61.1 46L142.5 200z"/><path class="st61" d="M179.2 466.6l153.6 48.2-67.7-103.4z"/><path class="st20" d="M265.1 411.4l67.7 103.4 34.8-90.3z"/><path class="st10" d="M434.4 372.2L332.8 514.8l133.3-38z"/><path class="st2" d="M332.8 514.8l48.6 15.3 84.7-53.3z"/><path class="st43" d="M194.3 123.7l2.4 8.2-9.7-2.8z"/></g></svg>